<?xml version="1.0" encoding="utf-8"?>
<!-- Generator: Adobe Illustrator 19.2.1, SVG Export Plug-In . SVG Version: 6.00 Build 0)  -->
<svg version="1.1" id="layer" xmlns="http://www.w3.org/2000/svg" xmlns:xlink="http://www.w3.org/1999/xlink" x="0px" y="0px"
	 viewBox="0 0 652 652" style="enable-background:new 0 0 652 652;" xml:space="preserve">
<style type="text/css">
	.st0{fill-rule:evenodd;clip-rule:evenodd;fill:#0099D9;}
	.st1{fill-rule:evenodd;clip-rule:evenodd;fill:#383336;}
	.st2{fill-rule:evenodd;clip-rule:evenodd;fill:#969999;}
</style>
<polygon class="st0" points="200.7,348.8 267.3,219.8 294.3,250.8 338.9,173 386.1,248.5 440.7,214.2 373.7,300.9 340.9,255.6 
	300.5,320.1 268.2,279.7 "/>
<g>
	<defs>
		<polygon id="SVGID_1_" points="200.7,348.8 267.3,219.8 294.3,250.8 338.9,173 386.1,248.5 440.7,214.2 373.7,300.9 340.9,255.6 
			300.5,320.1 268.2,279.7 		"/>
	</defs>
	<clipPath id="SVGID_2_">
		<use xlink:href="#SVGID_1_"  style="overflow:visible;"/>
	</clipPath>
</g>
<path class="st1" d="M598,465.7l0.4,2.8c-0.7,0.2-1.4,0.3-1.9,0.3c-0.9,0-1.6-0.2-2.2-0.5c-0.6-0.4-0.9-0.9-1.1-1.5
	c-0.2-0.6-0.3-1.9-0.3-3.7v-10.8h-1.9v-2.5h1.9v-4.7l2.6-1.9v6.6h2.6v2.5h-2.6v11c0,1,0.1,1.7,0.2,2c0.2,0.4,0.6,0.6,1.3,0.6
	C597.1,465.9,597.5,465.8,598,465.7 M575.8,468.6v-26h2.8v22.9h10.5v3.1H575.8z M559.9,468.6V465h3v3.6H559.9z M544.2,459.2
	c0,2.4,0.4,4.2,1.3,5.4c0.9,1.2,2,1.8,3.3,1.8c1.2,0,2.3-0.6,3.2-1.8c0.9-1.2,1.3-3,1.3-5.4c0-2.4-0.4-4.2-1.3-5.4
	c-0.9-1.2-2-1.8-3.3-1.8c-1.2,0-2.3,0.6-3.2,1.8C544.7,455,544.2,456.8,544.2,459.2z M541.6,459.2c0-3.2,0.7-5.7,2-7.3
	c1.4-1.7,3.1-2.5,5.2-2.5c2,0,3.8,0.8,5.2,2.5c1.4,1.6,2.1,4,2.1,7.1c0,3.4-0.7,5.9-2,7.5c-1.4,1.7-3.1,2.5-5.2,2.5
	c-2.1,0-3.8-0.8-5.2-2.5C542.3,464.9,541.6,462.4,541.6,459.2z M536.6,459.5l2.8,0.9c-0.6,2.9-1.7,5.1-3.3,6.5
	c-1.6,1.4-3.5,2.2-5.7,2.2c-2,0-3.7-0.5-5.1-1.4c-1.4-1-2.5-2.5-3.4-4.6c-0.9-2.1-1.3-4.6-1.3-7.5c0-2.9,0.4-5.3,1.3-7.2
	c0.9-2,2.1-3.5,3.6-4.5c1.5-1,3.2-1.5,5.1-1.5c2.1,0,3.8,0.6,5.3,1.9c1.5,1.3,2.5,3.2,3.1,5.6l-2.8,0.8c-0.9-3.6-2.8-5.4-5.7-5.4
	c-1.4,0-2.6,0.4-3.7,1.1c-1,0.7-1.9,1.9-2.5,3.4c-0.6,1.5-0.9,3.5-0.9,5.8c0,3.6,0.6,6.2,1.9,8c1.3,1.8,2.9,2.7,5,2.7
	c1.5,0,2.9-0.5,4-1.6C535.5,463.4,536.2,461.7,536.6,459.5z M496.3,468.6v-18.8h2.4v2.7c0.6-1,1.3-1.8,2.1-2.3
	c0.8-0.5,1.8-0.8,2.8-0.8c0.8,0,1.6,0.2,2.3,0.5c0.7,0.3,1.3,0.7,1.7,1.3c0.4,0.5,0.8,1.2,1,2c0.2,0.8,0.3,2.1,0.3,3.9v11.6h-2.6
	v-11.4c0-1.4-0.1-2.4-0.4-3c-0.2-0.6-0.6-1.1-1.1-1.5c-0.5-0.4-1.1-0.5-1.7-0.5c-1.2,0-2.2,0.5-3,1.4c-0.7,0.9-1.1,2.5-1.1,4.8v10.3
	H496.3z M481.5,459.2c0,2.4,0.4,4.2,1.3,5.4c0.9,1.2,2,1.8,3.3,1.8c1.2,0,2.3-0.6,3.2-1.8c0.9-1.2,1.3-3,1.3-5.4
	c0-2.4-0.4-4.2-1.3-5.4c-0.9-1.2-2-1.8-3.3-1.8c-1.2,0-2.3,0.6-3.2,1.8C481.9,455,481.5,456.8,481.5,459.2z M478.8,459.2
	c0-3.2,0.7-5.7,2-7.3c1.4-1.7,3.1-2.5,5.2-2.5c2,0,3.8,0.8,5.2,2.5c1.4,1.6,2.1,4,2.1,7.1c0,3.4-0.7,5.9-2,7.5
	c-1.4,1.7-3.1,2.5-5.2,2.5c-2.1,0-3.8-0.8-5.2-2.5C479.5,464.9,478.8,462.4,478.8,459.2z M473.2,468.6v-18.8h2.6v18.8H473.2z
	 M473.2,446.3v-3.7h2.6v3.7H473.2z M470.7,465.7l0.4,2.8c-0.7,0.2-1.4,0.3-1.9,0.3c-0.9,0-1.6-0.2-2.2-0.5c-0.6-0.4-0.9-0.9-1.1-1.5
	c-0.2-0.6-0.3-1.9-0.3-3.7v-10.8h-1.9v-2.5h1.9v-4.7l2.6-1.9v6.6h2.6v2.5h-2.6v11c0,1,0.1,1.7,0.2,2c0.2,0.4,0.6,0.6,1.3,0.6
	C469.9,465.9,470.2,465.8,470.7,465.7z M458.2,459.2c-1,0.5-2.4,0.9-4.3,1.2c-1.1,0.2-1.9,0.4-2.3,0.6c-0.4,0.2-0.8,0.6-1,1
	c-0.2,0.4-0.4,0.9-0.4,1.5c0,0.9,0.3,1.6,0.8,2.1c0.5,0.5,1.3,0.8,2.3,0.8c0.9,0,1.8-0.2,2.5-0.7c0.8-0.5,1.3-1.1,1.7-1.9
	c0.4-0.8,0.6-2,0.6-3.5V459.2z M458.4,466.3c-0.9,0.9-1.8,1.6-2.7,2.1c-0.9,0.5-1.9,0.7-2.9,0.7c-1.6,0-2.9-0.5-3.8-1.5
	c-1-1-1.4-2.3-1.4-3.9c0-1.1,0.2-2,0.7-2.9c0.4-0.8,1.1-1.5,1.8-2c0.8-0.5,2-0.8,3.5-1c2.1-0.3,3.7-0.7,4.7-1.1l0-0.8
	c0-1.3-0.2-2.2-0.7-2.7c-0.6-0.8-1.6-1.1-3-1.1c-1.2,0-2.1,0.2-2.7,0.7c-0.6,0.5-1,1.4-1.3,2.8l-2.6-0.4c0.4-2,1.1-3.5,2.2-4.4
	c1.1-0.9,2.7-1.4,4.8-1.4c1.6,0,2.9,0.3,3.8,0.9c0.9,0.6,1.5,1.4,1.7,2.3c0.2,0.9,0.4,2.2,0.4,3.9v4.2c0,3,0.1,4.9,0.2,5.6
	c0.1,0.8,0.3,1.5,0.7,2.3h-2.7C458.7,468,458.5,467.2,458.4,466.3z M438.5,468.6v-18.8h2.4v2.8c0.6-1.3,1.2-2.2,1.7-2.6
	c0.5-0.4,1.1-0.6,1.7-0.6c0.9,0,1.8,0.3,2.7,1l-0.9,3c-0.7-0.5-1.3-0.7-1.9-0.7c-0.6,0-1.1,0.2-1.5,0.6c-0.5,0.4-0.8,0.9-1,1.6
	c-0.3,1.2-0.5,2.5-0.5,3.9v9.8H438.5z M423.9,457.4h8.6c-0.1-1.6-0.5-2.8-1-3.6c-0.8-1.2-1.9-1.8-3.2-1.8c-1.2,0-2.2,0.5-3,1.5
	C424.4,454.4,424,455.7,423.9,457.4z M432.5,462.5l2.7,0.4c-0.4,2-1.3,3.5-2.4,4.5c-1.2,1-2.6,1.5-4.4,1.5c-2.2,0-4-0.8-5.3-2.5
	c-1.3-1.7-2-4.1-2-7.2c0-3.2,0.7-5.7,2-7.4c1.4-1.7,3.1-2.6,5.2-2.6c2,0,3.7,0.8,5,2.5c1.3,1.7,2,4.1,2,7.3l0,0.9h-11.5
	c0.1,2.1,0.6,3.7,1.5,4.8c0.9,1.1,1.9,1.6,3.2,1.6C430.4,466.4,431.7,465.1,432.5,462.5z M405.4,468.6v-18.8h2.4v2.7
	c0.6-1,1.3-1.8,2.1-2.3c0.8-0.5,1.8-0.8,2.8-0.8c0.8,0,1.6,0.2,2.3,0.5c0.7,0.3,1.3,0.7,1.7,1.3c0.4,0.5,0.8,1.2,1,2
	c0.2,0.8,0.3,2.1,0.3,3.9v11.6h-2.6v-11.4c0-1.4-0.1-2.4-0.4-3c-0.2-0.6-0.6-1.1-1.1-1.5c-0.5-0.4-1.1-0.5-1.7-0.5
	c-1.2,0-2.2,0.5-3,1.4c-0.7,0.9-1.1,2.5-1.1,4.8v10.3H405.4z M390.8,457.4h8.6c-0.1-1.6-0.5-2.8-1-3.6c-0.8-1.2-1.9-1.8-3.2-1.8
	c-1.2,0-2.2,0.5-3,1.5C391.4,454.4,390.9,455.7,390.8,457.4z M399.4,462.5l2.7,0.4c-0.4,2-1.3,3.5-2.4,4.5c-1.2,1-2.6,1.5-4.4,1.5
	c-2.2,0-4-0.8-5.3-2.5c-1.3-1.7-2-4.1-2-7.2c0-3.2,0.7-5.7,2-7.4c1.4-1.7,3.1-2.6,5.2-2.6c2,0,3.7,0.8,5,2.5c1.3,1.7,2,4.1,2,7.3
	l0,0.9h-11.5c0.1,2.1,0.6,3.7,1.5,4.8c0.9,1.1,1.9,1.6,3.2,1.6C397.3,466.4,398.7,465.1,399.4,462.5z M376.2,458.4v-3l9,0v9.6
	c-1.4,1.3-2.8,2.4-4.3,3c-1.5,0.7-3,1-4.5,1c-2.1,0-3.9-0.5-5.6-1.6c-1.6-1-2.9-2.6-3.9-4.5c-0.9-2-1.4-4.4-1.4-7.2
	c0-2.8,0.5-5.3,1.4-7.4c1-2.1,2.2-3.6,3.8-4.6c1.5-1,3.4-1.5,5.5-1.5c1.6,0,2.9,0.3,4.1,0.9c1.2,0.6,2.1,1.4,2.9,2.5
	c0.8,1.1,1.3,2.5,1.7,4.4l-2.5,0.9c-0.3-1.5-0.8-2.6-1.3-3.3c-0.5-0.7-1.2-1.3-2.1-1.7c-0.9-0.4-1.8-0.6-2.9-0.6
	c-1.5,0-2.9,0.4-4,1.1c-1.1,0.7-2,1.9-2.7,3.5c-0.7,1.6-1,3.5-1,5.8c0,3.5,0.7,6.1,2.2,7.8c1.5,1.7,3.3,2.6,5.7,2.6
	c1.1,0,2.2-0.3,3.4-0.8c1.2-0.5,2.1-1.2,2.8-1.9v-4.8H376.2z M347.6,468.6v-18.8h2.4v2.8c0.6-1.3,1.2-2.2,1.7-2.6
	c0.5-0.4,1.1-0.6,1.7-0.6c0.9,0,1.8,0.3,2.7,1l-0.9,3c-0.7-0.5-1.3-0.7-1.9-0.7c-0.6,0-1.1,0.2-1.5,0.6c-0.5,0.4-0.8,0.9-1,1.6
	c-0.3,1.2-0.5,2.5-0.5,3.9v9.8H347.6z M333,457.4h8.6c-0.1-1.6-0.5-2.8-1-3.6c-0.8-1.2-1.9-1.8-3.2-1.8c-1.2,0-2.2,0.5-3,1.5
	C333.5,454.4,333.1,455.7,333,457.4z M341.6,462.5l2.7,0.4c-0.4,2-1.3,3.5-2.4,4.5c-1.2,1-2.6,1.5-4.4,1.5c-2.2,0-4-0.8-5.3-2.5
	c-1.3-1.7-2-4.1-2-7.2c0-3.2,0.7-5.7,2-7.4c1.4-1.7,3.1-2.6,5.2-2.6c2,0,3.7,0.8,5,2.5c1.3,1.7,2,4.1,2,7.3l0,0.9h-11.5
	c0.1,2.1,0.6,3.7,1.5,4.8c0.9,1.1,1.9,1.6,3.2,1.6C339.5,466.4,340.8,465.1,341.6,462.5z M312.4,468.6l-4.7-18.8h2.7l2.4,10.9l0.9,4
	l0.8-3.9l2.4-11h2.7l2.3,10.9l0.8,3.6l0.9-3.6l2.6-10.9h2.5l-4.8,18.8h-2.7l-2.5-11.3l-0.6-3.2l-3.1,14.5H312.4z M294.8,459.2
	c0,2.4,0.4,4.2,1.3,5.4c0.9,1.2,2,1.8,3.3,1.8c1.2,0,2.3-0.6,3.2-1.8c0.9-1.2,1.3-3,1.3-5.4c0-2.4-0.4-4.2-1.3-5.4
	c-0.9-1.2-2-1.8-3.3-1.8c-1.2,0-2.3,0.6-3.2,1.8C295.2,455,294.8,456.8,294.8,459.2z M292.1,459.2c0-3.2,0.7-5.7,2-7.3
	c1.4-1.7,3.1-2.5,5.2-2.5c2,0,3.8,0.8,5.1,2.5c1.4,1.6,2.1,4,2.1,7.1c0,3.4-0.7,5.9-2,7.5c-1.4,1.7-3.1,2.5-5.2,2.5
	c-2.1,0-3.8-0.8-5.2-2.5C292.8,464.9,292.1,462.4,292.1,459.2z M276.4,455h5.5c1.7,0,3-0.4,3.8-1.2c0.8-0.8,1.2-2,1.2-3.5
	c0-1-0.2-1.9-0.6-2.6c-0.4-0.7-0.9-1.2-1.4-1.5c-0.6-0.3-1.6-0.4-3-0.4h-5.5V455z M273.6,468.6v-26h8c1.9,0,3.3,0.2,4.2,0.5
	c1.2,0.4,2.2,1.3,2.9,2.5c0.7,1.2,1.1,2.7,1.1,4.5c0,2.3-0.6,4.2-1.8,5.7c-1.2,1.5-3.2,2.2-6.2,2.2h-5.5v10.6H273.6z M250.4,457.4
	h8.6c-0.1-1.6-0.5-2.8-1-3.6c-0.8-1.2-1.9-1.8-3.2-1.8c-1.2,0-2.2,0.5-3,1.5C250.9,454.4,250.5,455.7,250.4,457.4z M259,462.5
	l2.7,0.4c-0.4,2-1.3,3.5-2.4,4.5c-1.2,1-2.6,1.5-4.4,1.5c-2.2,0-4-0.8-5.3-2.5c-1.3-1.7-2-4.1-2-7.2c0-3.2,0.7-5.7,2-7.4
	c1.4-1.7,3.1-2.6,5.2-2.6c2,0,3.7,0.8,5,2.5c1.3,1.7,2,4.1,2,7.3l0,0.9h-11.5c0.1,2.1,0.6,3.7,1.5,4.8c0.9,1.1,1.9,1.6,3.2,1.6
	C256.9,466.4,258.2,465.1,259,462.5z M246,465.7l0.4,2.8c-0.7,0.2-1.4,0.3-1.9,0.3c-0.9,0-1.6-0.2-2.2-0.5c-0.5-0.4-0.9-0.9-1.1-1.5
	c-0.2-0.6-0.3-1.9-0.3-3.7v-10.8h-1.9v-2.5h1.9v-4.7l2.6-1.9v6.6h2.6v2.5h-2.6v11c0,1,0.1,1.7,0.2,2c0.2,0.4,0.6,0.6,1.3,0.6
	C245.2,465.9,245.5,465.8,246,465.7z M233.5,459.2c-1,0.5-2.4,0.9-4.3,1.2c-1.1,0.2-1.9,0.4-2.3,0.6c-0.4,0.2-0.8,0.6-1,1
	c-0.2,0.4-0.4,0.9-0.4,1.5c0,0.9,0.3,1.6,0.8,2.1c0.6,0.5,1.3,0.8,2.3,0.8c0.9,0,1.8-0.2,2.5-0.7c0.8-0.5,1.3-1.1,1.7-1.9
	c0.4-0.8,0.6-2,0.6-3.5V459.2z M233.7,466.3c-0.9,0.9-1.8,1.6-2.7,2.1c-0.9,0.5-1.9,0.7-2.9,0.7c-1.6,0-2.9-0.5-3.8-1.5
	c-1-1-1.4-2.3-1.4-3.9c0-1.1,0.2-2,0.7-2.9c0.4-0.8,1.1-1.5,1.8-2c0.8-0.5,2-0.8,3.5-1c2.1-0.3,3.7-0.7,4.7-1.1l0-0.8
	c0-1.3-0.2-2.2-0.7-2.7c-0.6-0.8-1.6-1.1-3-1.1c-1.2,0-2.1,0.2-2.7,0.7c-0.6,0.5-1,1.4-1.3,2.8l-2.6-0.4c0.4-2,1.1-3.5,2.2-4.4
	c1.1-0.9,2.7-1.4,4.8-1.4c1.6,0,2.9,0.3,3.8,0.9c0.9,0.6,1.5,1.4,1.7,2.3c0.2,0.9,0.4,2.2,0.4,3.9v4.2c0,3,0.1,4.9,0.2,5.6
	c0.1,0.8,0.3,1.5,0.7,2.3h-2.7C234,468,233.8,467.2,233.7,466.3z M221.2,465.7l0.4,2.8c-0.7,0.2-1.4,0.3-1.9,0.3
	c-0.9,0-1.6-0.2-2.2-0.5c-0.5-0.4-0.9-0.9-1.1-1.5c-0.2-0.6-0.3-1.9-0.3-3.7v-10.8h-1.9v-2.5h1.9v-4.7l2.6-1.9v6.6h2.6v2.5h-2.6v11
	c0,1,0.1,1.7,0.2,2c0.2,0.4,0.6,0.6,1.3,0.6C220.4,465.9,220.7,465.8,221.2,465.7z M195,460.3l2.7-0.3c0.1,1.4,0.5,2.5,1,3.3
	c0.5,0.8,1.2,1.4,2.2,1.9c0.9,0.5,2,0.7,3.1,0.7c1.7,0,3-0.4,3.9-1.2c0.9-0.8,1.4-1.9,1.4-3.2c0-0.8-0.2-1.4-0.5-2
	c-0.3-0.6-0.8-1-1.5-1.4c-0.7-0.4-2.1-0.9-4.4-1.5c-2-0.6-3.4-1.2-4.3-1.8c-0.9-0.6-1.5-1.4-2-2.3c-0.5-0.9-0.7-2-0.7-3.1
	c0-2.1,0.7-3.8,2-5.1c1.4-1.3,3.2-2,5.5-2c1.6,0,3,0.3,4.1,0.9c1.2,0.6,2.1,1.5,2.8,2.7c0.7,1.2,1,2.5,1.1,4.1l-2.7,0.2
	c-0.1-1.7-0.6-2.9-1.5-3.7c-0.9-0.8-2.1-1.2-3.7-1.2c-1.6,0-2.8,0.4-3.6,1.1c-0.8,0.7-1.3,1.6-1.3,2.8c0,1,0.3,1.9,0.9,2.4
	c0.6,0.6,2,1.2,4.1,1.8c2.1,0.6,3.6,1.1,4.4,1.5c1.3,0.7,2.3,1.5,2.9,2.6c0.7,1.1,1,2.4,1,3.9c0,1.5-0.3,2.8-1,4.1
	c-0.7,1.2-1.6,2.1-2.8,2.8c-1.2,0.6-2.6,1-4.3,1c-2.6,0-4.7-0.8-6.3-2.4C195.9,465.1,195.1,463,195,460.3z M180.6,459.2
	c-1,0.5-2.4,0.9-4.3,1.2c-1.1,0.2-1.9,0.4-2.3,0.6c-0.4,0.2-0.8,0.6-1,1c-0.2,0.4-0.4,0.9-0.4,1.5c0,0.9,0.3,1.6,0.8,2.1
	c0.5,0.5,1.3,0.8,2.3,0.8c0.9,0,1.8-0.2,2.5-0.7c0.8-0.5,1.3-1.1,1.7-1.9c0.4-0.8,0.6-2,0.6-3.5V459.2z M180.8,466.3
	c-0.9,0.9-1.8,1.6-2.7,2.1c-0.9,0.5-1.9,0.7-2.9,0.7c-1.6,0-2.9-0.5-3.8-1.5c-1-1-1.4-2.3-1.4-3.9c0-1.1,0.2-2,0.7-2.9
	c0.4-0.8,1.1-1.5,1.8-2c0.8-0.5,2-0.8,3.5-1c2.1-0.3,3.7-0.7,4.7-1.1l0-0.8c0-1.3-0.2-2.2-0.7-2.7c-0.6-0.8-1.6-1.1-3-1.1
	c-1.2,0-2.1,0.2-2.7,0.7c-0.6,0.5-1,1.4-1.3,2.8l-2.6-0.4c0.4-2,1.1-3.5,2.2-4.4c1.1-0.9,2.7-1.4,4.8-1.4c1.6,0,2.9,0.3,3.8,0.9
	c0.9,0.6,1.5,1.4,1.7,2.3c0.2,0.9,0.4,2.2,0.4,3.9v4.2c0,3,0.1,4.9,0.2,5.6c0.1,0.8,0.3,1.5,0.7,2.3h-2.7
	C181.1,468,180.9,467.2,180.8,466.3z M160.9,468.6v-18.8h2.4v2.8c0.6-1.3,1.2-2.2,1.7-2.6c0.5-0.4,1.1-0.6,1.7-0.6
	c0.9,0,1.8,0.3,2.7,1l-0.9,3c-0.7-0.5-1.3-0.7-1.9-0.7c-0.6,0-1.1,0.2-1.5,0.6c-0.5,0.4-0.8,0.9-1,1.6c-0.3,1.2-0.5,2.5-0.5,3.9v9.8
	H160.9z M158.4,465.7l0.4,2.8c-0.7,0.2-1.4,0.3-1.9,0.3c-0.9,0-1.6-0.2-2.2-0.5c-0.5-0.4-0.9-0.9-1.1-1.5c-0.2-0.6-0.3-1.9-0.3-3.7
	v-10.8h-1.9v-2.5h1.9v-4.7l2.6-1.9v6.6h2.6v2.5h-2.6v11c0,1,0.1,1.7,0.2,2c0.2,0.4,0.6,0.6,1.3,0.6
	C157.6,465.9,158,465.8,158.4,465.7z M136.1,468.6v-26h2.6v9.3c0.6-0.9,1.3-1.5,2.1-1.9c0.8-0.4,1.6-0.6,2.6-0.6
	c1.6,0,2.9,0.5,3.9,1.6c0.9,1,1.4,3,1.4,5.7v11.9H146v-11.9c0-1.6-0.3-2.8-0.9-3.5c-0.6-0.7-1.4-1.1-2.4-1.1c-1.1,0-2.1,0.5-2.9,1.4
	c-0.8,0.9-1.2,2.5-1.2,4.8v10.3H136.1z M120.2,463l2.6-0.5c0.2,1.3,0.6,2.3,1.3,3c0.7,0.6,1.6,1,2.7,1c1.1,0,2-0.3,2.6-0.8
	c0.6-0.6,0.9-1.3,0.9-2.1c0-0.7-0.3-1.3-0.8-1.7c-0.4-0.3-1.3-0.6-2.7-1.1c-2-0.6-3.4-1.2-4.1-1.6c-0.7-0.4-1.2-1-1.6-1.8
	c-0.4-0.7-0.6-1.6-0.6-2.5c0-1.6,0.5-2.9,1.5-3.9c1-1,2.5-1.5,4.3-1.5c1.1,0,2.1,0.2,3,0.6c0.9,0.4,1.5,1,2,1.7c0.5,0.7,0.8,1.7,1,3
	l-2.6,0.4c-0.2-2.1-1.4-3.1-3.3-3.1c-1.1,0-2,0.2-2.5,0.7c-0.5,0.5-0.8,1-0.8,1.7c0,0.7,0.3,1.2,0.8,1.7c0.3,0.2,1.3,0.6,2.8,1.1
	c2.2,0.7,3.6,1.2,4.2,1.7c0.6,0.4,1.1,1,1.5,1.7c0.4,0.7,0.5,1.5,0.5,2.5c0,1.8-0.6,3.2-1.7,4.4c-1.1,1.1-2.7,1.7-4.7,1.7
	C123,469,120.8,467,120.2,463z M114.5,459.2c-1,0.5-2.4,0.9-4.3,1.2c-1.1,0.2-1.9,0.4-2.3,0.6c-0.4,0.2-0.8,0.6-1,1
	c-0.2,0.4-0.4,0.9-0.4,1.5c0,0.9,0.3,1.6,0.8,2.1c0.5,0.5,1.3,0.8,2.3,0.8c0.9,0,1.8-0.2,2.5-0.7c0.8-0.5,1.3-1.1,1.7-1.9
	c0.4-0.8,0.6-2,0.6-3.5V459.2z M114.7,466.3c-0.9,0.9-1.8,1.6-2.7,2.1c-0.9,0.5-1.9,0.7-2.9,0.7c-1.6,0-2.9-0.5-3.8-1.5
	c-1-1-1.4-2.3-1.4-3.9c0-1.1,0.2-2,0.7-2.9c0.4-0.8,1.1-1.5,1.8-2c0.8-0.5,2-0.8,3.5-1c2.1-0.3,3.7-0.7,4.7-1.1l0-0.8
	c0-1.3-0.2-2.2-0.7-2.7c-0.6-0.8-1.6-1.1-3-1.1c-1.2,0-2.1,0.2-2.7,0.7c-0.6,0.5-1,1.4-1.3,2.8l-2.6-0.4c0.4-2,1.1-3.5,2.2-4.4
	c1.1-0.9,2.7-1.4,4.8-1.4c1.6,0,2.9,0.3,3.8,0.9c0.9,0.6,1.5,1.4,1.7,2.3c0.2,0.9,0.4,2.2,0.4,3.9v4.2c0,3,0.1,4.9,0.2,5.6
	c0.1,0.8,0.3,1.5,0.7,2.3h-2.7C115,468,114.8,467.2,114.7,466.3z M94.8,468.6v-18.8h2.4v2.8c0.6-1.3,1.2-2.2,1.7-2.6
	c0.5-0.4,1.1-0.6,1.7-0.6c0.9,0,1.8,0.3,2.7,1l-0.9,3c-0.7-0.5-1.3-0.7-1.9-0.7c-0.6,0-1.1,0.2-1.5,0.6c-0.5,0.4-0.8,0.9-1,1.6
	c-0.3,1.2-0.5,2.5-0.5,3.9v9.8H94.8z M88.1,459.2c-1,0.5-2.4,0.9-4.3,1.2c-1.1,0.2-1.9,0.4-2.3,0.6c-0.4,0.2-0.8,0.6-1,1
	c-0.2,0.4-0.4,0.9-0.4,1.5c0,0.9,0.3,1.6,0.8,2.1c0.5,0.5,1.3,0.8,2.3,0.8c0.9,0,1.8-0.2,2.5-0.7c0.8-0.5,1.3-1.1,1.7-1.9
	c0.4-0.8,0.6-2,0.6-3.5V459.2z M88.3,466.3c-0.9,0.9-1.8,1.6-2.7,2.1c-0.9,0.5-1.9,0.7-2.9,0.7c-1.6,0-2.9-0.5-3.8-1.5
	c-1-1-1.4-2.3-1.4-3.9c0-1.1,0.2-2,0.7-2.9c0.4-0.8,1.1-1.5,1.8-2c0.8-0.5,2-0.8,3.5-1c2.1-0.3,3.7-0.7,4.7-1.1l0-0.8
	c0-1.3-0.2-2.2-0.7-2.7c-0.6-0.8-1.6-1.1-3-1.1c-1.2,0-2.1,0.2-2.7,0.7c-0.6,0.5-1,1.4-1.3,2.8l-2.6-0.4c0.4-2,1.1-3.5,2.2-4.4
	c1.1-0.9,2.7-1.4,4.8-1.4c1.6,0,2.9,0.3,3.8,0.9c0.9,0.6,1.5,1.4,1.7,2.3c0.2,0.9,0.4,2.2,0.4,3.9v4.2c0,3,0.1,4.9,0.2,5.6
	c0.1,0.8,0.3,1.5,0.7,2.3h-2.7C88.6,468,88.4,467.2,88.3,466.3z M61.7,468.6v-26h2.6v9.3c0.6-0.9,1.3-1.5,2.1-1.9
	c0.8-0.4,1.6-0.6,2.6-0.6c1.6,0,2.9,0.5,3.9,1.6c0.9,1,1.4,3,1.4,5.7v11.9h-2.6v-11.9c0-1.6-0.3-2.8-0.9-3.5
	c-0.6-0.7-1.4-1.1-2.4-1.1c-1.1,0-2.1,0.5-2.9,1.4c-0.8,0.9-1.2,2.5-1.2,4.8v10.3H61.7z M55,459.2c-1,0.5-2.4,0.9-4.3,1.2
	c-1.1,0.2-1.9,0.4-2.3,0.6c-0.4,0.2-0.8,0.6-1,1c-0.2,0.4-0.4,0.9-0.4,1.5c0,0.9,0.3,1.6,0.8,2.1c0.5,0.5,1.3,0.8,2.3,0.8
	c0.9,0,1.8-0.2,2.5-0.7c0.8-0.5,1.3-1.1,1.7-1.9c0.4-0.8,0.6-2,0.6-3.5V459.2z M55.2,466.3c-0.9,0.9-1.8,1.6-2.7,2.1
	c-0.9,0.5-1.9,0.7-2.9,0.7c-1.6,0-2.9-0.5-3.8-1.5c-1-1-1.4-2.3-1.4-3.9c0-1.1,0.2-2,0.7-2.9c0.4-0.8,1.1-1.5,1.8-2
	c0.8-0.5,2-0.8,3.5-1c2.1-0.3,3.7-0.7,4.7-1.1l0-0.8c0-1.3-0.2-2.2-0.7-2.7c-0.6-0.8-1.6-1.1-3-1.1c-1.2,0-2.1,0.2-2.7,0.7
	c-0.6,0.5-1,1.4-1.3,2.8l-2.6-0.4c0.4-2,1.1-3.5,2.2-4.4c1.1-0.9,2.7-1.4,4.8-1.4c1.6,0,2.9,0.3,3.8,0.9c0.9,0.6,1.5,1.4,1.7,2.3
	c0.2,0.9,0.4,2.2,0.4,3.9v4.2c0,3,0.1,4.9,0.2,5.6c0.1,0.8,0.3,1.5,0.7,2.3h-2.7C55.5,468,55.3,467.2,55.2,466.3z M20.7,468.6v-26
	H25l5,18.4l1,3.8c0.2-1,0.6-2.3,1.1-4.2l5.1-18.1H41v26h-2.7v-21.7l-6.2,21.7h-2.5l-6.2-22.1v22.1H20.7z"/>
<g>
	<defs>
		<path id="SVGID_3_" d="M598,465.7l0.4,2.8c-0.7,0.2-1.4,0.3-1.9,0.3c-0.9,0-1.6-0.2-2.2-0.5c-0.6-0.4-0.9-0.9-1.1-1.5
			c-0.2-0.6-0.3-1.9-0.3-3.7v-10.8h-1.9v-2.5h1.9v-4.7l2.6-1.9v6.6h2.6v2.5h-2.6v11c0,1,0.1,1.7,0.2,2c0.2,0.4,0.6,0.6,1.3,0.6
			C597.1,465.9,597.5,465.8,598,465.7 M575.8,468.6v-26h2.8v22.9h10.5v3.1H575.8z M559.9,468.6V465h3v3.6H559.9z M544.2,459.2
			c0,2.4,0.4,4.2,1.3,5.4c0.9,1.2,2,1.8,3.3,1.8c1.2,0,2.3-0.6,3.2-1.8c0.9-1.2,1.3-3,1.3-5.4c0-2.4-0.4-4.2-1.3-5.4
			c-0.9-1.2-2-1.8-3.3-1.8c-1.2,0-2.3,0.6-3.2,1.8C544.7,455,544.2,456.8,544.2,459.2z M541.6,459.2c0-3.2,0.7-5.7,2-7.3
			c1.4-1.7,3.1-2.5,5.2-2.5c2,0,3.8,0.8,5.2,2.5c1.4,1.6,2.1,4,2.1,7.1c0,3.4-0.7,5.9-2,7.5c-1.4,1.7-3.1,2.5-5.2,2.5
			c-2.1,0-3.8-0.8-5.2-2.5C542.3,464.9,541.6,462.4,541.6,459.2z M536.6,459.5l2.8,0.9c-0.6,2.9-1.7,5.1-3.3,6.5
			c-1.6,1.4-3.5,2.2-5.7,2.2c-2,0-3.7-0.5-5.1-1.4c-1.4-1-2.5-2.5-3.4-4.6c-0.9-2.1-1.3-4.6-1.3-7.5c0-2.9,0.4-5.3,1.3-7.2
			c0.9-2,2.1-3.5,3.6-4.5c1.5-1,3.2-1.5,5.1-1.5c2.1,0,3.8,0.6,5.3,1.9c1.5,1.3,2.5,3.2,3.1,5.6l-2.8,0.8c-0.9-3.6-2.8-5.4-5.7-5.4
			c-1.4,0-2.6,0.4-3.7,1.1c-1,0.7-1.9,1.9-2.5,3.4c-0.6,1.5-0.9,3.5-0.9,5.8c0,3.6,0.6,6.2,1.9,8c1.3,1.8,2.9,2.7,5,2.7
			c1.5,0,2.9-0.5,4-1.6C535.5,463.4,536.2,461.7,536.6,459.5z M496.3,468.6v-18.8h2.4v2.7c0.6-1,1.3-1.8,2.1-2.3
			c0.8-0.5,1.8-0.8,2.8-0.8c0.8,0,1.6,0.2,2.3,0.5c0.7,0.3,1.3,0.7,1.7,1.3c0.4,0.5,0.8,1.2,1,2c0.2,0.8,0.3,2.1,0.3,3.9v11.6h-2.6
			v-11.4c0-1.4-0.1-2.4-0.4-3c-0.2-0.6-0.6-1.1-1.1-1.5c-0.5-0.4-1.1-0.5-1.7-0.5c-1.2,0-2.2,0.5-3,1.4c-0.7,0.9-1.1,2.5-1.1,4.8
			v10.3H496.3z M481.5,459.2c0,2.4,0.4,4.2,1.3,5.4c0.9,1.2,2,1.8,3.3,1.8c1.2,0,2.3-0.6,3.2-1.8c0.9-1.2,1.3-3,1.3-5.4
			c0-2.4-0.4-4.2-1.3-5.4c-0.9-1.2-2-1.8-3.3-1.8c-1.2,0-2.3,0.6-3.2,1.8C481.9,455,481.5,456.8,481.5,459.2z M478.8,459.2
			c0-3.2,0.7-5.7,2-7.3c1.4-1.7,3.1-2.5,5.2-2.5c2,0,3.8,0.8,5.2,2.5c1.4,1.6,2.1,4,2.1,7.1c0,3.4-0.7,5.9-2,7.5
			c-1.4,1.7-3.1,2.5-5.2,2.5c-2.1,0-3.8-0.8-5.2-2.5C479.5,464.9,478.8,462.4,478.8,459.2z M473.2,468.6v-18.8h2.6v18.8H473.2z
			 M473.2,446.3v-3.7h2.6v3.7H473.2z M470.7,465.7l0.4,2.8c-0.7,0.2-1.4,0.3-1.9,0.3c-0.9,0-1.6-0.2-2.2-0.5
			c-0.6-0.4-0.9-0.9-1.1-1.5c-0.2-0.6-0.3-1.9-0.3-3.7v-10.8h-1.9v-2.5h1.9v-4.7l2.6-1.9v6.6h2.6v2.5h-2.6v11c0,1,0.1,1.7,0.2,2
			c0.2,0.4,0.6,0.6,1.3,0.6C469.9,465.9,470.2,465.8,470.7,465.7z M458.2,459.2c-1,0.5-2.4,0.9-4.3,1.2c-1.1,0.2-1.9,0.4-2.3,0.6
			c-0.4,0.2-0.8,0.6-1,1c-0.2,0.4-0.4,0.9-0.4,1.5c0,0.9,0.3,1.6,0.8,2.1c0.5,0.5,1.3,0.8,2.3,0.8c0.9,0,1.8-0.2,2.5-0.7
			c0.8-0.5,1.3-1.1,1.7-1.9c0.4-0.8,0.6-2,0.6-3.5V459.2z M458.4,466.3c-0.9,0.9-1.8,1.6-2.7,2.1c-0.9,0.5-1.9,0.7-2.9,0.7
			c-1.6,0-2.9-0.5-3.8-1.5c-1-1-1.4-2.3-1.4-3.9c0-1.1,0.2-2,0.7-2.9c0.4-0.8,1.1-1.5,1.8-2c0.8-0.5,2-0.8,3.5-1
			c2.1-0.3,3.7-0.7,4.7-1.1l0-0.8c0-1.3-0.2-2.2-0.7-2.7c-0.6-0.8-1.6-1.1-3-1.1c-1.2,0-2.1,0.2-2.7,0.7c-0.6,0.5-1,1.4-1.3,2.8
			l-2.6-0.4c0.4-2,1.1-3.5,2.2-4.4c1.1-0.9,2.7-1.4,4.8-1.4c1.6,0,2.9,0.3,3.8,0.9c0.9,0.6,1.5,1.4,1.7,2.3c0.2,0.9,0.4,2.2,0.4,3.9
			v4.2c0,3,0.1,4.9,0.2,5.6c0.1,0.8,0.3,1.5,0.7,2.3h-2.7C458.7,468,458.5,467.2,458.4,466.3z M438.5,468.6v-18.8h2.4v2.8
			c0.6-1.3,1.2-2.2,1.7-2.6c0.5-0.4,1.1-0.6,1.7-0.6c0.9,0,1.8,0.3,2.7,1l-0.9,3c-0.7-0.5-1.3-0.7-1.9-0.7c-0.6,0-1.1,0.2-1.5,0.6
			c-0.5,0.4-0.8,0.9-1,1.6c-0.3,1.2-0.5,2.5-0.5,3.9v9.8H438.5z M423.9,457.4h8.6c-0.1-1.6-0.5-2.8-1-3.6c-0.8-1.2-1.9-1.8-3.2-1.8
			c-1.2,0-2.2,0.5-3,1.5C424.4,454.4,424,455.7,423.9,457.4z M432.5,462.5l2.7,0.4c-0.4,2-1.3,3.5-2.4,4.5c-1.2,1-2.6,1.5-4.4,1.5
			c-2.2,0-4-0.8-5.3-2.5c-1.3-1.7-2-4.1-2-7.2c0-3.2,0.7-5.7,2-7.4c1.4-1.7,3.1-2.6,5.2-2.6c2,0,3.7,0.8,5,2.5c1.3,1.7,2,4.1,2,7.3
			l0,0.9h-11.5c0.1,2.1,0.6,3.7,1.5,4.8c0.9,1.1,1.9,1.6,3.2,1.6C430.4,466.4,431.7,465.1,432.5,462.5z M405.4,468.6v-18.8h2.4v2.7
			c0.6-1,1.3-1.8,2.1-2.3c0.8-0.5,1.8-0.8,2.8-0.8c0.8,0,1.6,0.2,2.3,0.5c0.7,0.3,1.3,0.7,1.7,1.3c0.4,0.5,0.8,1.2,1,2
			c0.2,0.8,0.3,2.1,0.3,3.9v11.6h-2.6v-11.4c0-1.4-0.1-2.4-0.4-3c-0.2-0.6-0.6-1.1-1.1-1.5c-0.5-0.4-1.1-0.5-1.7-0.5
			c-1.2,0-2.2,0.5-3,1.4c-0.7,0.9-1.1,2.5-1.1,4.8v10.3H405.4z M390.8,457.4h8.6c-0.1-1.6-0.5-2.8-1-3.6c-0.8-1.2-1.9-1.8-3.2-1.8
			c-1.2,0-2.2,0.5-3,1.5C391.4,454.4,390.9,455.7,390.8,457.4z M399.4,462.5l2.7,0.4c-0.4,2-1.3,3.5-2.4,4.5c-1.2,1-2.6,1.5-4.4,1.5
			c-2.2,0-4-0.8-5.3-2.5c-1.3-1.7-2-4.1-2-7.2c0-3.2,0.7-5.7,2-7.4c1.4-1.7,3.1-2.6,5.2-2.6c2,0,3.7,0.8,5,2.5c1.3,1.7,2,4.1,2,7.3
			l0,0.9h-11.5c0.1,2.1,0.6,3.7,1.5,4.8c0.9,1.1,1.9,1.6,3.2,1.6C397.3,466.4,398.7,465.1,399.4,462.5z M376.2,458.4v-3l9,0v9.6
			c-1.4,1.3-2.8,2.4-4.3,3c-1.5,0.7-3,1-4.5,1c-2.1,0-3.9-0.5-5.6-1.6c-1.6-1-2.9-2.6-3.9-4.5c-0.9-2-1.4-4.4-1.4-7.2
			c0-2.8,0.5-5.3,1.4-7.4c1-2.1,2.2-3.6,3.8-4.6c1.5-1,3.4-1.5,5.5-1.5c1.6,0,2.9,0.3,4.1,0.9c1.2,0.6,2.1,1.4,2.9,2.5
			c0.8,1.1,1.3,2.5,1.7,4.4l-2.5,0.9c-0.3-1.5-0.8-2.6-1.3-3.3c-0.5-0.7-1.2-1.3-2.1-1.7c-0.9-0.4-1.8-0.6-2.9-0.6
			c-1.5,0-2.9,0.4-4,1.1c-1.1,0.7-2,1.9-2.7,3.5c-0.7,1.6-1,3.5-1,5.8c0,3.5,0.7,6.1,2.2,7.8c1.5,1.7,3.3,2.6,5.7,2.6
			c1.1,0,2.2-0.3,3.4-0.8c1.2-0.5,2.1-1.2,2.8-1.9v-4.8H376.2z M347.6,468.6v-18.8h2.4v2.8c0.6-1.3,1.2-2.2,1.7-2.6
			c0.5-0.4,1.1-0.6,1.7-0.6c0.9,0,1.8,0.3,2.7,1l-0.9,3c-0.7-0.5-1.3-0.7-1.9-0.7c-0.6,0-1.1,0.2-1.5,0.6c-0.5,0.4-0.8,0.9-1,1.6
			c-0.3,1.2-0.5,2.5-0.5,3.9v9.8H347.6z M333,457.4h8.6c-0.1-1.6-0.5-2.8-1-3.6c-0.8-1.2-1.9-1.8-3.2-1.8c-1.2,0-2.2,0.5-3,1.5
			C333.5,454.4,333.1,455.7,333,457.4z M341.6,462.5l2.7,0.4c-0.4,2-1.3,3.5-2.4,4.5c-1.2,1-2.6,1.5-4.4,1.5c-2.2,0-4-0.8-5.3-2.5
			c-1.3-1.7-2-4.1-2-7.2c0-3.2,0.7-5.7,2-7.4c1.4-1.7,3.1-2.6,5.2-2.6c2,0,3.7,0.8,5,2.5c1.3,1.7,2,4.1,2,7.3l0,0.9h-11.5
			c0.1,2.1,0.6,3.7,1.5,4.8c0.9,1.1,1.9,1.6,3.2,1.6C339.5,466.4,340.8,465.1,341.6,462.5z M312.4,468.6l-4.7-18.8h2.7l2.4,10.9
			l0.9,4l0.8-3.9l2.4-11h2.7l2.3,10.9l0.8,3.6l0.9-3.6l2.6-10.9h2.5l-4.8,18.8h-2.7l-2.5-11.3l-0.6-3.2l-3.1,14.5H312.4z
			 M294.8,459.2c0,2.4,0.4,4.2,1.3,5.4c0.9,1.2,2,1.8,3.3,1.8c1.2,0,2.3-0.6,3.2-1.8c0.9-1.2,1.3-3,1.3-5.4c0-2.4-0.4-4.2-1.3-5.4
			c-0.9-1.2-2-1.8-3.3-1.8c-1.2,0-2.3,0.6-3.2,1.8C295.2,455,294.8,456.8,294.8,459.2z M292.1,459.2c0-3.2,0.7-5.7,2-7.3
			c1.4-1.7,3.1-2.5,5.2-2.5c2,0,3.8,0.8,5.1,2.5c1.4,1.6,2.1,4,2.1,7.1c0,3.4-0.7,5.9-2,7.5c-1.4,1.7-3.1,2.5-5.2,2.5
			c-2.1,0-3.8-0.8-5.2-2.5C292.8,464.9,292.1,462.4,292.1,459.2z M276.4,455h5.5c1.7,0,3-0.4,3.8-1.2c0.8-0.8,1.2-2,1.2-3.5
			c0-1-0.2-1.9-0.6-2.6c-0.4-0.7-0.9-1.2-1.4-1.5c-0.6-0.3-1.6-0.4-3-0.4h-5.5V455z M273.6,468.6v-26h8c1.9,0,3.3,0.2,4.2,0.5
			c1.2,0.4,2.2,1.3,2.9,2.5c0.7,1.2,1.1,2.7,1.1,4.5c0,2.3-0.6,4.2-1.8,5.7c-1.2,1.5-3.2,2.2-6.2,2.2h-5.5v10.6H273.6z M250.4,457.4
			h8.6c-0.1-1.6-0.5-2.8-1-3.6c-0.8-1.2-1.9-1.8-3.2-1.8c-1.2,0-2.2,0.5-3,1.5C250.9,454.4,250.5,455.7,250.4,457.4z M259,462.5
			l2.7,0.4c-0.4,2-1.3,3.5-2.4,4.5c-1.2,1-2.6,1.5-4.4,1.5c-2.2,0-4-0.8-5.3-2.5c-1.3-1.7-2-4.1-2-7.2c0-3.2,0.7-5.7,2-7.4
			c1.4-1.7,3.1-2.6,5.2-2.6c2,0,3.7,0.8,5,2.5c1.3,1.7,2,4.1,2,7.3l0,0.9h-11.5c0.1,2.1,0.6,3.7,1.5,4.8c0.9,1.1,1.9,1.6,3.2,1.6
			C256.9,466.4,258.2,465.1,259,462.5z M246,465.7l0.4,2.8c-0.7,0.2-1.4,0.3-1.9,0.3c-0.9,0-1.6-0.2-2.2-0.5
			c-0.5-0.4-0.9-0.9-1.1-1.5c-0.2-0.6-0.3-1.9-0.3-3.7v-10.8h-1.9v-2.5h1.9v-4.7l2.6-1.9v6.6h2.6v2.5h-2.6v11c0,1,0.1,1.7,0.2,2
			c0.2,0.4,0.6,0.6,1.3,0.6C245.2,465.9,245.5,465.8,246,465.7z M233.5,459.2c-1,0.5-2.4,0.9-4.3,1.2c-1.1,0.2-1.9,0.4-2.3,0.6
			c-0.4,0.2-0.8,0.6-1,1c-0.2,0.4-0.4,0.9-0.4,1.5c0,0.9,0.3,1.6,0.8,2.1c0.6,0.5,1.3,0.8,2.3,0.8c0.9,0,1.8-0.2,2.5-0.7
			c0.8-0.5,1.3-1.1,1.7-1.9c0.4-0.8,0.6-2,0.6-3.5V459.2z M233.7,466.3c-0.9,0.9-1.8,1.6-2.7,2.1c-0.9,0.5-1.9,0.7-2.9,0.7
			c-1.6,0-2.9-0.5-3.8-1.5c-1-1-1.4-2.3-1.4-3.9c0-1.1,0.2-2,0.7-2.9c0.4-0.8,1.1-1.5,1.8-2c0.8-0.5,2-0.8,3.5-1
			c2.1-0.3,3.7-0.7,4.7-1.1l0-0.8c0-1.3-0.2-2.2-0.7-2.7c-0.6-0.8-1.6-1.1-3-1.1c-1.2,0-2.1,0.2-2.7,0.7c-0.6,0.5-1,1.4-1.3,2.8
			l-2.6-0.4c0.4-2,1.1-3.5,2.2-4.4c1.1-0.9,2.7-1.4,4.8-1.4c1.6,0,2.9,0.3,3.8,0.9c0.9,0.6,1.5,1.4,1.7,2.3c0.2,0.9,0.4,2.2,0.4,3.9
			v4.2c0,3,0.1,4.9,0.2,5.6c0.1,0.8,0.3,1.5,0.7,2.3h-2.7C234,468,233.8,467.2,233.7,466.3z M221.2,465.7l0.4,2.8
			c-0.7,0.2-1.4,0.3-1.9,0.3c-0.9,0-1.6-0.2-2.2-0.5c-0.5-0.4-0.9-0.9-1.1-1.5c-0.2-0.6-0.3-1.9-0.3-3.7v-10.8h-1.9v-2.5h1.9v-4.7
			l2.6-1.9v6.6h2.6v2.5h-2.6v11c0,1,0.1,1.7,0.2,2c0.2,0.4,0.6,0.6,1.3,0.6C220.4,465.9,220.7,465.8,221.2,465.7z M195,460.3
			l2.7-0.3c0.1,1.4,0.5,2.5,1,3.3c0.5,0.8,1.2,1.4,2.2,1.9c0.9,0.5,2,0.7,3.1,0.7c1.7,0,3-0.4,3.9-1.2c0.9-0.8,1.4-1.9,1.4-3.2
			c0-0.8-0.2-1.4-0.5-2c-0.3-0.6-0.8-1-1.5-1.4c-0.7-0.4-2.1-0.9-4.4-1.5c-2-0.6-3.4-1.2-4.3-1.8c-0.9-0.6-1.5-1.4-2-2.3
			c-0.5-0.9-0.7-2-0.7-3.1c0-2.1,0.7-3.8,2-5.1c1.4-1.3,3.2-2,5.5-2c1.6,0,3,0.3,4.1,0.9c1.2,0.6,2.1,1.5,2.8,2.7
			c0.7,1.2,1,2.5,1.1,4.1l-2.7,0.2c-0.1-1.7-0.6-2.9-1.5-3.7c-0.9-0.8-2.1-1.2-3.7-1.2c-1.6,0-2.8,0.4-3.6,1.1
			c-0.8,0.7-1.3,1.6-1.3,2.8c0,1,0.3,1.9,0.9,2.4c0.6,0.6,2,1.2,4.1,1.8c2.1,0.6,3.6,1.1,4.4,1.5c1.3,0.7,2.3,1.5,2.9,2.6
			c0.7,1.1,1,2.4,1,3.9c0,1.5-0.3,2.8-1,4.1c-0.7,1.2-1.6,2.1-2.8,2.8c-1.2,0.6-2.6,1-4.3,1c-2.6,0-4.7-0.8-6.3-2.4
			C195.9,465.1,195.1,463,195,460.3z M180.6,459.2c-1,0.5-2.4,0.9-4.3,1.2c-1.1,0.2-1.9,0.4-2.3,0.6c-0.4,0.2-0.8,0.6-1,1
			c-0.2,0.4-0.4,0.9-0.4,1.5c0,0.9,0.3,1.6,0.8,2.1c0.5,0.5,1.3,0.8,2.3,0.8c0.9,0,1.8-0.2,2.5-0.7c0.8-0.5,1.3-1.1,1.7-1.9
			c0.4-0.8,0.6-2,0.6-3.5V459.2z M180.8,466.3c-0.9,0.9-1.8,1.6-2.7,2.1c-0.9,0.5-1.9,0.7-2.9,0.7c-1.6,0-2.9-0.5-3.8-1.5
			c-1-1-1.4-2.3-1.4-3.9c0-1.1,0.2-2,0.7-2.9c0.4-0.8,1.1-1.5,1.8-2c0.8-0.5,2-0.8,3.5-1c2.1-0.3,3.7-0.7,4.7-1.1l0-0.8
			c0-1.3-0.2-2.2-0.7-2.7c-0.6-0.8-1.6-1.1-3-1.1c-1.2,0-2.1,0.2-2.7,0.7c-0.6,0.5-1,1.4-1.3,2.8l-2.6-0.4c0.4-2,1.1-3.5,2.2-4.4
			c1.1-0.9,2.7-1.4,4.8-1.4c1.6,0,2.9,0.3,3.8,0.9c0.9,0.6,1.5,1.4,1.7,2.3c0.2,0.9,0.4,2.2,0.4,3.9v4.2c0,3,0.1,4.9,0.2,5.6
			c0.1,0.8,0.3,1.5,0.7,2.3h-2.7C181.1,468,180.9,467.2,180.8,466.3z M160.9,468.6v-18.8h2.4v2.8c0.6-1.3,1.2-2.2,1.7-2.6
			c0.5-0.4,1.1-0.6,1.7-0.6c0.9,0,1.8,0.3,2.7,1l-0.9,3c-0.7-0.5-1.3-0.7-1.9-0.7c-0.6,0-1.1,0.2-1.5,0.6c-0.5,0.4-0.8,0.9-1,1.6
			c-0.3,1.2-0.5,2.5-0.5,3.9v9.8H160.9z M158.4,465.7l0.4,2.8c-0.7,0.2-1.4,0.3-1.9,0.3c-0.9,0-1.6-0.2-2.2-0.5
			c-0.5-0.4-0.9-0.9-1.1-1.5c-0.2-0.6-0.3-1.9-0.3-3.7v-10.8h-1.9v-2.5h1.9v-4.7l2.6-1.9v6.6h2.6v2.5h-2.6v11c0,1,0.1,1.7,0.2,2
			c0.2,0.4,0.6,0.6,1.3,0.6C157.6,465.9,158,465.8,158.4,465.7z M136.1,468.6v-26h2.6v9.3c0.6-0.9,1.3-1.5,2.1-1.9
			c0.8-0.4,1.6-0.6,2.6-0.6c1.6,0,2.9,0.5,3.9,1.6c0.9,1,1.4,3,1.4,5.7v11.9H146v-11.9c0-1.6-0.3-2.8-0.9-3.5
			c-0.6-0.7-1.4-1.1-2.4-1.1c-1.1,0-2.1,0.5-2.9,1.4c-0.8,0.9-1.2,2.5-1.2,4.8v10.3H136.1z M120.2,463l2.6-0.5
			c0.2,1.3,0.6,2.3,1.3,3c0.7,0.6,1.6,1,2.7,1c1.1,0,2-0.3,2.6-0.8c0.6-0.6,0.9-1.3,0.9-2.1c0-0.7-0.3-1.3-0.8-1.7
			c-0.4-0.3-1.3-0.6-2.7-1.1c-2-0.6-3.4-1.2-4.1-1.6c-0.7-0.4-1.2-1-1.6-1.8c-0.4-0.7-0.6-1.6-0.6-2.5c0-1.6,0.5-2.9,1.5-3.9
			c1-1,2.5-1.5,4.3-1.5c1.1,0,2.1,0.2,3,0.6c0.9,0.4,1.5,1,2,1.7c0.5,0.7,0.8,1.7,1,3l-2.6,0.4c-0.2-2.1-1.4-3.1-3.3-3.1
			c-1.1,0-2,0.2-2.5,0.7c-0.5,0.5-0.8,1-0.8,1.7c0,0.7,0.3,1.2,0.8,1.7c0.3,0.2,1.3,0.6,2.8,1.1c2.2,0.7,3.6,1.2,4.2,1.7
			c0.6,0.4,1.1,1,1.5,1.7c0.4,0.7,0.5,1.5,0.5,2.5c0,1.8-0.6,3.2-1.7,4.4c-1.1,1.1-2.7,1.7-4.7,1.7C123,469,120.8,467,120.2,463z
			 M114.5,459.2c-1,0.5-2.4,0.9-4.3,1.2c-1.1,0.2-1.9,0.4-2.3,0.6c-0.4,0.2-0.8,0.6-1,1c-0.2,0.4-0.4,0.9-0.4,1.5
			c0,0.9,0.3,1.6,0.8,2.1c0.5,0.5,1.3,0.8,2.3,0.8c0.9,0,1.8-0.2,2.5-0.7c0.8-0.5,1.3-1.1,1.7-1.9c0.4-0.8,0.6-2,0.6-3.5V459.2z
			 M114.7,466.3c-0.9,0.9-1.8,1.6-2.7,2.1c-0.9,0.5-1.9,0.7-2.9,0.7c-1.6,0-2.9-0.5-3.8-1.5c-1-1-1.4-2.3-1.4-3.9
			c0-1.1,0.2-2,0.7-2.9c0.4-0.8,1.1-1.5,1.8-2c0.8-0.5,2-0.8,3.5-1c2.1-0.3,3.7-0.7,4.7-1.1l0-0.8c0-1.3-0.2-2.2-0.7-2.7
			c-0.6-0.8-1.6-1.1-3-1.1c-1.2,0-2.1,0.2-2.7,0.7c-0.6,0.5-1,1.4-1.3,2.8l-2.6-0.4c0.4-2,1.1-3.5,2.2-4.4c1.1-0.9,2.7-1.4,4.8-1.4
			c1.6,0,2.9,0.3,3.8,0.9c0.9,0.6,1.5,1.4,1.7,2.3c0.2,0.9,0.4,2.2,0.4,3.9v4.2c0,3,0.1,4.9,0.2,5.6c0.1,0.8,0.3,1.5,0.7,2.3h-2.7
			C115,468,114.8,467.2,114.7,466.3z M94.8,468.6v-18.8h2.4v2.8c0.6-1.3,1.2-2.2,1.7-2.6c0.5-0.4,1.1-0.6,1.7-0.6
			c0.9,0,1.8,0.3,2.7,1l-0.9,3c-0.7-0.5-1.3-0.7-1.9-0.7c-0.6,0-1.1,0.2-1.5,0.6c-0.5,0.4-0.8,0.9-1,1.6c-0.3,1.2-0.5,2.5-0.5,3.9
			v9.8H94.8z M88.1,459.2c-1,0.5-2.4,0.9-4.3,1.2c-1.1,0.2-1.9,0.4-2.3,0.6c-0.4,0.2-0.8,0.6-1,1c-0.2,0.4-0.4,0.9-0.4,1.5
			c0,0.9,0.3,1.6,0.8,2.1c0.5,0.5,1.3,0.8,2.3,0.8c0.9,0,1.8-0.2,2.5-0.7c0.8-0.5,1.3-1.1,1.7-1.9c0.4-0.8,0.6-2,0.6-3.5V459.2z
			 M88.3,466.3c-0.9,0.9-1.8,1.6-2.7,2.1c-0.9,0.5-1.9,0.7-2.9,0.7c-1.6,0-2.9-0.5-3.8-1.5c-1-1-1.4-2.3-1.4-3.9
			c0-1.1,0.2-2,0.7-2.9c0.4-0.8,1.1-1.5,1.8-2c0.8-0.5,2-0.8,3.5-1c2.1-0.3,3.7-0.7,4.7-1.1l0-0.8c0-1.3-0.2-2.2-0.7-2.7
			c-0.6-0.8-1.6-1.1-3-1.1c-1.2,0-2.1,0.2-2.7,0.7c-0.6,0.5-1,1.4-1.3,2.8l-2.6-0.4c0.4-2,1.1-3.5,2.2-4.4c1.1-0.9,2.7-1.4,4.8-1.4
			c1.6,0,2.9,0.3,3.8,0.9c0.9,0.6,1.5,1.4,1.7,2.3c0.2,0.9,0.4,2.2,0.4,3.9v4.2c0,3,0.1,4.9,0.2,5.6c0.1,0.8,0.3,1.5,0.7,2.3h-2.7
			C88.6,468,88.4,467.2,88.3,466.3z M61.7,468.6v-26h2.6v9.3c0.6-0.9,1.3-1.5,2.1-1.9c0.8-0.4,1.6-0.6,2.6-0.6
			c1.6,0,2.9,0.5,3.9,1.6c0.9,1,1.4,3,1.4,5.7v11.9h-2.6v-11.9c0-1.6-0.3-2.8-0.9-3.5c-0.6-0.7-1.4-1.1-2.4-1.1
			c-1.1,0-2.1,0.5-2.9,1.4c-0.8,0.9-1.2,2.5-1.2,4.8v10.3H61.7z M55,459.2c-1,0.5-2.4,0.9-4.3,1.2c-1.1,0.2-1.9,0.4-2.3,0.6
			c-0.4,0.2-0.8,0.6-1,1c-0.2,0.4-0.4,0.9-0.4,1.5c0,0.9,0.3,1.6,0.8,2.1c0.5,0.5,1.3,0.8,2.3,0.8c0.9,0,1.8-0.2,2.5-0.7
			c0.8-0.5,1.3-1.1,1.7-1.9c0.4-0.8,0.6-2,0.6-3.5V459.2z M55.2,466.3c-0.9,0.9-1.8,1.6-2.7,2.1c-0.9,0.5-1.9,0.7-2.9,0.7
			c-1.6,0-2.9-0.5-3.8-1.5c-1-1-1.4-2.3-1.4-3.9c0-1.1,0.2-2,0.7-2.9c0.4-0.8,1.1-1.5,1.8-2c0.8-0.5,2-0.8,3.5-1
			c2.1-0.3,3.7-0.7,4.7-1.1l0-0.8c0-1.3-0.2-2.2-0.7-2.7c-0.6-0.8-1.6-1.1-3-1.1c-1.2,0-2.1,0.2-2.7,0.7c-0.6,0.5-1,1.4-1.3,2.8
			l-2.6-0.4c0.4-2,1.1-3.5,2.2-4.4c1.1-0.9,2.7-1.4,4.8-1.4c1.6,0,2.9,0.3,3.8,0.9c0.9,0.6,1.5,1.4,1.7,2.3c0.2,0.9,0.4,2.2,0.4,3.9
			v4.2c0,3,0.1,4.9,0.2,5.6c0.1,0.8,0.3,1.5,0.7,2.3h-2.7C55.5,468,55.3,467.2,55.2,466.3z M20.7,468.6v-26H25l5,18.4l1,3.8
			c0.2-1,0.6-2.3,1.1-4.2l5.1-18.1H41v26h-2.7v-21.7l-6.2,21.7h-2.5l-6.2-22.1v22.1H20.7z"/>
	</defs>
	<clipPath id="SVGID_4_">
		<use xlink:href="#SVGID_3_"  style="overflow:visible;"/>
	</clipPath>
</g>
<path class="st1" d="M617.8,468.6V465h3v3.6H617.8z M602.1,459.2c0,2.4,0.4,4.2,1.3,5.4c0.8,1.2,1.8,1.8,3,1.8
	c1.1,0,2.1-0.6,2.9-1.7c0.8-1.1,1.2-2.8,1.2-5.1c0-2.6-0.4-4.6-1.2-5.8c-0.8-1.2-1.8-1.8-3.1-1.8c-1.1,0-2,0.6-2.8,1.7
	C602.5,454.9,602.1,456.7,602.1,459.2z M610.4,468.6v-2.4c-0.5,0.9-1.1,1.6-1.8,2.1c-0.7,0.5-1.5,0.7-2.4,0.7
	c-1.8,0-3.4-0.9-4.7-2.6c-1.3-1.7-2-4.1-2-7.2c0-2.1,0.3-3.9,0.9-5.4c0.6-1.5,1.4-2.6,2.4-3.3c1-0.7,2.1-1.1,3.3-1.1
	c0.9,0,1.7,0.2,2.4,0.7c0.7,0.5,1.3,1.1,1.8,1.9v-9.3h2.6v26H610.4z"/>
<g>
	<defs>
		<path id="SVGID_5_" d="M617.8,468.6V465h3v3.6H617.8z M602.1,459.2c0,2.4,0.4,4.2,1.3,5.4c0.8,1.2,1.8,1.8,3,1.8
			c1.1,0,2.1-0.6,2.9-1.7c0.8-1.1,1.2-2.8,1.2-5.1c0-2.6-0.4-4.6-1.2-5.8c-0.8-1.2-1.8-1.8-3.1-1.8c-1.1,0-2,0.6-2.8,1.7
			C602.5,454.9,602.1,456.7,602.1,459.2z M610.4,468.6v-2.4c-0.5,0.9-1.1,1.6-1.8,2.1c-0.7,0.5-1.5,0.7-2.4,0.7
			c-1.8,0-3.4-0.9-4.7-2.6c-1.3-1.7-2-4.1-2-7.2c0-2.1,0.3-3.9,0.9-5.4c0.6-1.5,1.4-2.6,2.4-3.3c1-0.7,2.1-1.1,3.3-1.1
			c0.9,0,1.7,0.2,2.4,0.7c0.7,0.5,1.3,1.1,1.8,1.9v-9.3h2.6v26H610.4z"/>
	</defs>
	<clipPath id="SVGID_6_">
		<use xlink:href="#SVGID_5_"  style="overflow:visible;"/>
	</clipPath>
</g>
<path class="st2" d="M571.7,391.8c0,8.9,2,15.8,5.9,20.7c4,4.9,8.8,7.4,14.5,7.4c5.8,0,10.7-2.5,14.6-7.4c3.9-5,5.9-12.2,5.9-21.8
	c0-6.2-1-11.7-3-16.6c-1.6-3.7-3.9-6.7-7.1-9c-3.1-2.2-6.6-3.4-10.3-3.4c-6,0-10.9,2.5-14.7,7.4
	C573.6,373.9,571.7,381.5,571.7,391.8 M563.5,391.7c0-12.3,2.7-21.7,8.2-28.4c5.5-6.6,12.3-9.9,20.5-9.9c5.3,0,10.1,1.5,14.4,4.4
	c4.3,2.9,7.8,7.2,10.3,12.9c2.5,5.6,3.8,12.3,3.8,20.1c0,10.7-2.4,19.4-7.4,26.1c-5.4,7.4-12.5,11.1-21.3,11.1
	c-8.8,0-15.9-3.8-21.3-11.4C565.9,409.7,563.5,401.4,563.5,391.7z M547.9,401.5l8,2.4c-1.8,8.1-4.8,14.1-9.2,18.1
	c-4.4,4-9.8,6-16.1,6c-5.5,0-10.3-1.3-14.2-4c-3.9-2.7-7.2-7-9.7-12.9c-2.5-5.9-3.8-12.9-3.8-20.9c0-7.9,1.3-14.6,3.8-20.1
	c2.5-5.5,5.9-9.7,10.2-12.5c4.3-2.8,9.1-4.2,14.3-4.2c5.8,0,10.7,1.8,14.9,5.3c4.2,3.6,7.1,8.8,8.7,15.7l-7.8,2.2
	c-2.6-10-8-15.1-16-15.1c-4,0-7.4,1-10.4,3c-2.9,2-5.2,5.2-7,9.4c-1.8,4.3-2.6,9.7-2.6,16.2c0,9.9,1.8,17.3,5.3,22.2
	c3.5,4.9,8.2,7.4,14,7.4c4.3,0,8-1.5,11.2-4.6C544.7,412.3,546.8,407.7,547.9,401.5z M444.8,426.8v-72.1h8.1l31.4,56.6v-56.6h7.6
	v72.1h-8.1l-31.4-56.7v56.7H444.8z M389.5,426.8v-72.1h43.3v8.5h-35.4v22.1h33.1v8.5h-33.1v24.6h36.7v8.5H389.5z M352.5,398.5V390
	l25.3-0.1v26.8c-3.9,3.7-7.9,6.5-12,8.4c-4.1,1.9-8.4,2.8-12.8,2.8c-5.8,0-11-1.4-15.6-4.3c-4.6-2.9-8.2-7.1-10.9-12.6
	c-2.7-5.5-4-12.2-4-20c0-7.9,1.4-14.7,4-20.6c2.7-5.8,6.2-10.1,10.6-12.9c4.3-2.8,9.5-4.1,15.4-4.1c4.4,0,8.2,0.8,11.5,2.4
	c3.3,1.6,6,3.9,8.1,6.9c2.1,2.9,3.7,7,4.8,12.1l-7.1,2.4c-1-4.1-2.2-7.1-3.6-9.1c-1.5-2-3.4-3.6-5.8-4.7c-2.4-1.2-5.1-1.7-8.1-1.7
	c-4.3,0-8.1,1-11.2,3.1c-3.1,2.1-5.7,5.3-7.6,9.7c-1.9,4.4-2.9,9.8-2.9,16.1c0,9.6,2,16.9,6.1,21.7c4.1,4.8,9.4,7.2,15.9,7.2
	c3.1,0,6.3-0.7,9.6-2.2c3.3-1.5,5.9-3.2,7.8-5.3v-13.4H352.5z"/>
<g>
	<defs>
		<path id="SVGID_7_" d="M571.7,391.8c0,8.9,2,15.8,5.9,20.7c4,4.9,8.8,7.4,14.5,7.4c5.8,0,10.7-2.5,14.6-7.4
			c3.9-5,5.9-12.2,5.9-21.8c0-6.2-1-11.7-3-16.6c-1.6-3.7-3.9-6.7-7.1-9c-3.1-2.2-6.6-3.4-10.3-3.4c-6,0-10.9,2.5-14.7,7.4
			C573.6,373.9,571.7,381.5,571.7,391.8 M563.5,391.7c0-12.3,2.7-21.7,8.2-28.4c5.5-6.6,12.3-9.9,20.5-9.9c5.3,0,10.1,1.5,14.4,4.4
			c4.3,2.9,7.8,7.2,10.3,12.9c2.5,5.6,3.8,12.3,3.8,20.1c0,10.7-2.4,19.4-7.4,26.1c-5.4,7.4-12.5,11.1-21.3,11.1
			c-8.8,0-15.9-3.8-21.3-11.4C565.9,409.7,563.5,401.4,563.5,391.7z M547.9,401.5l8,2.4c-1.8,8.1-4.8,14.1-9.2,18.1
			c-4.4,4-9.8,6-16.1,6c-5.5,0-10.3-1.3-14.2-4c-3.9-2.7-7.2-7-9.7-12.9c-2.5-5.9-3.8-12.9-3.8-20.9c0-7.9,1.3-14.6,3.8-20.1
			c2.5-5.5,5.9-9.7,10.2-12.5c4.3-2.8,9.1-4.2,14.3-4.2c5.8,0,10.7,1.8,14.9,5.3c4.2,3.6,7.1,8.8,8.7,15.7l-7.8,2.2
			c-2.6-10-8-15.1-16-15.1c-4,0-7.4,1-10.4,3c-2.9,2-5.2,5.2-7,9.4c-1.8,4.3-2.6,9.7-2.6,16.2c0,9.9,1.8,17.3,5.3,22.2
			c3.5,4.9,8.2,7.4,14,7.4c4.3,0,8-1.5,11.2-4.6C544.7,412.3,546.8,407.7,547.9,401.5z M444.8,426.8v-72.1h8.1l31.4,56.6v-56.6h7.6
			v72.1h-8.1l-31.4-56.7v56.7H444.8z M389.5,426.8v-72.1h43.3v8.5h-35.4v22.1h33.1v8.5h-33.1v24.6h36.7v8.5H389.5z M352.5,398.5V390
			l25.3-0.1v26.8c-3.9,3.7-7.9,6.5-12,8.4c-4.1,1.9-8.4,2.8-12.8,2.8c-5.8,0-11-1.4-15.6-4.3c-4.6-2.9-8.2-7.1-10.9-12.6
			c-2.7-5.5-4-12.2-4-20c0-7.9,1.4-14.7,4-20.6c2.7-5.8,6.2-10.1,10.6-12.9c4.3-2.8,9.5-4.1,15.4-4.1c4.4,0,8.2,0.8,11.5,2.4
			c3.3,1.6,6,3.9,8.1,6.9c2.1,2.9,3.7,7,4.8,12.1l-7.1,2.4c-1-4.1-2.2-7.1-3.6-9.1c-1.5-2-3.4-3.6-5.8-4.7c-2.4-1.2-5.1-1.7-8.1-1.7
			c-4.3,0-8.1,1-11.2,3.1c-3.1,2.1-5.7,5.3-7.6,9.7c-1.9,4.4-2.9,9.8-2.9,16.1c0,9.6,2,16.9,6.1,21.7c4.1,4.8,9.4,7.2,15.9,7.2
			c3.1,0,6.3-0.7,9.6-2.2c3.3-1.5,5.9-3.2,7.8-5.3v-13.4H352.5z"/>
	</defs>
	<clipPath id="SVGID_8_">
		<use xlink:href="#SVGID_7_"  style="overflow:visible;"/>
	</clipPath>
</g>
<polygon class="st1" points="303,426.6 326.2,426.6 299.2,354.8 275.1,354.8 248.1,426.6 270.8,426.6 286.9,373.4 "/>
<g>
	<defs>
		<polygon id="SVGID_9_" points="303,426.6 326.2,426.6 299.2,354.8 275.1,354.8 248.1,426.6 270.8,426.6 286.9,373.4 		"/>
	</defs>
	<clipPath id="SVGID_10_">
		<use xlink:href="#SVGID_9_"  style="overflow:visible;"/>
	</clipPath>
</g>
<polygon class="st1" points="179.5,354.8 201.6,354.8 201.6,379.9 225.9,379.9 225.9,354.8 248.1,354.8 248.1,426.6 225.9,426.6 
	225.9,397.5 201.6,397.5 201.6,426.6 179.5,426.6 "/>
<g>
	<defs>
		<polygon id="SVGID_11_" points="179.5,354.8 201.6,354.8 201.6,379.9 225.9,379.9 225.9,354.8 248.1,354.8 248.1,426.6 
			225.9,426.6 225.9,397.5 201.6,397.5 201.6,426.6 179.5,426.6 		"/>
	</defs>
	<clipPath id="SVGID_12_">
		<use xlink:href="#SVGID_11_"  style="overflow:visible;"/>
	</clipPath>
</g>
<polygon class="st1" points="124,426.6 101.4,426.6 128.4,354.8 152.5,354.8 179.5,426.6 156.3,426.6 140.2,373.4 "/>
<g>
	<defs>
		<polygon id="SVGID_13_" points="124,426.6 101.4,426.6 128.4,354.8 152.5,354.8 179.5,426.6 156.3,426.6 140.2,373.4 		"/>
	</defs>
	<clipPath id="SVGID_14_">
		<use xlink:href="#SVGID_13_"  style="overflow:visible;"/>
	</clipPath>
</g>
<polygon class="st1" points="20.7,354.8 49.9,354.8 61.1,398.5 72.3,354.8 101.4,354.8 101.4,426.6 83.3,426.6 83.3,371.9 
	69.3,426.6 52.9,426.6 38.9,371.9 38.9,426.6 20.7,426.6 "/>
<g>
	<defs>
		<polygon id="SVGID_15_" points="20.7,354.8 49.9,354.8 61.1,398.5 72.3,354.8 101.4,354.8 101.4,426.6 83.3,426.6 83.3,371.9 
			69.3,426.6 52.9,426.6 38.9,371.9 38.9,426.6 20.7,426.6 		"/>
	</defs>
	<clipPath id="SVGID_16_">
		<use xlink:href="#SVGID_15_"  style="overflow:visible;"/>
	</clipPath>
</g>
</svg>
