<?xml version="1.0" encoding="UTF-8" standalone="no"?> <svg xmlns:xlink="http://www.w3.org/1999/xlink" xmlns="http://www.w3.org/2000/svg" xmlns:svg="http://www.w3.org/2000/svg" version="1.1" id="svg1" width="550" height="200" viewBox="0 0 550 200"><defs id="defs1"></defs><g id="layer-Pr12"><g id="g8" transform="matrix(0.04990613,0,0,0.04990613,-8.962286,2.8498597)" style="stroke-width:20.0376"><path id="path1" d="m 3778.5498,4057.2998 h 258.2634 l 99.6993,-428.6872 99.2529,428.6872 h 257.3699 v -808.9277 l 263.2077,249.4474 v -177.8879 l -423.3206,-401.1922 v 176.4369 l -0.2282,-0.2169 v 795.0027 l -124.401,-537.3051 h -145.1013 l -123.9542,537.3051 V 3352.657 h -160.7879 z" style="fill:#006fc7;fill-opacity:1;fill-rule:evenodd;stroke:none;stroke-width:20.0376" transform="matrix(1.3333333,0,0,-1.3333333,0,5669.2913)"></path><path id="path2" d="m 2915.3937,2251.9154 72.612,474.0525 h 106.8559 l 91.8431,-279.0828 c 1.9947,-5.8629 4.1136,-14.3728 6.3374,-25.6436 2.3287,-11.1662 4.4476,-24.0973 6.3374,-38.4607 1.7751,14.5913 3.7795,27.7404 5.8887,39.3431 2.2238,11.4985 4.2279,20.0084 6.2323,25.4254 l 93.5039,278.4186 h 105.1857 l 72.9457,-474.0525 h -96.7391 l -34.7981,285.9324 c -2.6722,21.1087 -4.4476,37.1327 -5.2299,47.8624 -0.8878,10.8249 -1.3363,20.8814 -1.3363,30.1691 0,4.9714 0,8.7282 0.1145,11.1666 0.1145,2.4284 0.334,4.6391 0.5536,6.6313 -3.331,-18.5757 -6.3374,-34.5994 -9.3342,-48.0807 -2.8919,-13.4813 -5.5644,-23.6514 -7.893,-30.615 l -101.0724,-303.0661 h -57.2647 l -99.4022,303.0661 c -0.7827,2.8746 -2.7868,10.6067 -5.6787,23.3195 -2.8919,12.7125 -7.0053,31.2789 -12.2261,55.7082 v -13.9269 c 0,-22.0009 -1.8896,-48.9632 -5.8983,-80.9062 l -0.2194,-1.3283 -34.5785,-285.9324 z m 789.5956,0 v 474.0525 h 101.96 v -474.0525 z m 364.3949,0 v 474.0525 h 101.9599 v -387.957 h 162.8991 v -86.0955 z m 729.6582,180.3787 -53.3707,153.1885 c -1.5557,4.5348 -3.4456,12.2669 -5.8887,23.3195 -2.3383,10.9479 -4.8963,24.4292 -7.454,40.4529 -2.8919,-15.3595 -5.5644,-29.0684 -8.1128,-41.3353 -2.6722,-12.153 -4.5621,-20.331 -5.898,-24.42 l -51.4812,-151.2056 z m -303.5512,-180.3787 181.4627,474.0525 h 116.6389 l 184.0203,-474.0525 h -115.9707 l -38.8066,100.6869 h -184.6885 l -33.2422,-100.6869 z m 138.7718,519.031 63.8215,119.4808 h 77.6129 l 63.8217,-119.4808 h -45.9263 l -56.7017,70.2995 -57.3795,-70.2995 z m 547.079,-519.031 v 474.0525 h 105.8538 l 211.1545,-275.8759 c 6.0032,-7.7414 12.6746,-18.6803 20.014,-32.8255 7.225,-14.1548 14.7838,-30.8427 22.6769,-50.0732 -2.4435,14.0412 -4.2185,27.9681 -5.2206,41.7813 -1.1168,13.8135 -1.6704,31.0609 -1.6704,51.8377 v 265.1556 h 97.4075 v -474.0525 h -99.9652 l -217.0432,281.0656 c -6.0032,7.7414 -12.6745,18.68 -19.7943,32.8255 -7.225,14.1548 -14.7841,31.0606 -22.9059,50.737 2.4528,-13.595 4.2278,-27.4082 5.2302,-41.3354 1.1069,-13.9272 1.6701,-31.3928 1.6701,-52.6155 v -270.6772 z" style="fill:#6e6e6e icc-color(ISO-Coated-v2-ECI, 0, 0, 0, 0.70199585);fill-opacity:1;fill-rule:nonzero;stroke:none;stroke-width:20.0376" transform="matrix(1.3333333,0,0,-1.3333333,0,5669.2913)"></path><path id="path3" d="m 406.9089,1619.9031 43.5132,291.0911 h 64.0363 l 55.0418,-171.3699 c 1.199,-3.5977 2.4655,-8.8237 3.7981,-15.7456 1.3989,-6.8553 2.6654,-14.796 3.7981,-23.6185 1.0659,8.9586 2.2649,17.0353 3.5314,24.1616 1.3326,7.058 2.5317,12.284 3.7319,15.6096 l 56.04,170.9628 h 63.038 l 43.7131,-291.0911 h -57.9733 l -20.8573,175.5771 c -1.5988,12.9631 -2.6655,22.8044 -3.1315,29.3876 -0.5332,6.6509 -0.7993,12.827 -0.7993,18.5286 0,3.0535 0,5.3609 0.0663,6.8545 0.0663,1.4933 0.1998,2.8508 0.3333,4.072 -1.9995,-11.4021 -3.7981,-21.2434 -5.5978,-29.5226 -1.7326,-8.2803 -3.3313,-14.5241 -4.7313,-18.7996 l -60.5713,-186.0976 h -34.3179 l -59.5724,186.0976 c -0.466,1.7642 -1.6659,6.5145 -3.3984,14.3203 -1.7323,7.8046 -4.1979,19.2067 -7.3293,34.2054 v -8.5513 c 0,-13.5062 -1.133,-30.0659 -3.5322,-49.6797 l -0.1327,-0.8152 -20.7235,-175.5771 z m 381.0889,0 v 291.0911 h 61.1056 v -291.0911 z m 126.2746,0 v 291.0911 h 61.1048 v -238.221 h 97.6221 v -52.8701 z m 345.1731,110.7626 -31.985,94.066 c -0.9328,2.7834 -2.0659,7.5337 -3.5311,14.3206 -1.4,6.7193 -2.9324,14.9996 -4.4651,24.8398 -1.7323,-9.4332 -3.3313,-17.8495 -4.8648,-25.3829 -1.5988,-7.4653 -2.7318,-12.4877 -3.5312,-14.9986 l -30.852,-92.8449 z m -181.915,-110.7626 108.7497,291.0911 h 69.9004 l 110.2822,-291.0911 h -69.5016 l -23.2557,61.8287 h -110.6818 l -19.9234,-61.8287 z m 83.1611,318.7133 38.249,73.3666 h 46.512 l 38.2487,-73.3666 h -27.5207 l -33.9846,43.1649 -34.3831,-43.1649 z m 235.7566,-318.7133 v 291.0911 h 63.4377 l 126.5408,-169.4021 c 3.5986,-4.7503 7.5966,-11.4695 11.9946,-20.1569 4.3313,-8.6876 8.8628,-18.9357 13.5932,-30.7451 -1.4655,8.6199 -2.5319,17.1712 -3.1314,25.6553 -0.6662,8.4838 -0.9995,19.0706 -0.9995,31.8302 v 162.8186 h 58.373 v -291.0911 h -59.9054 l -130.0731,172.5913 c -3.5983,4.7503 -7.5966,11.4696 -11.8607,20.1569 -4.3317,8.6876 -8.8631,19.0709 -13.728,31.1522 1.4664,-8.3478 2.5328,-16.8316 3.1326,-25.3831 0.6659,-8.5513 0.9992,-19.2753 0.9992,-32.3059 v -166.2114 z m 456.2549,0 v 291.0911 h 61.1045 v -238.221 h 97.6221 v -52.8701 z m 345.1732,110.7626 -31.9851,94.066 c -0.9331,2.7834 -2.0658,7.5337 -3.5314,14.3206 -1.3997,6.7193 -2.9324,14.9996 -4.4648,24.8398 -1.7325,-9.4332 -3.3313,-17.8495 -4.8648,-25.3829 -1.5991,-7.4653 -2.7318,-12.4877 -3.5311,-14.9986 l -30.8523,-92.8449 z m -181.9151,-110.7626 108.7494,291.0911 h 69.9004 l 110.2825,-291.0911 h -69.5018 l -23.2555,61.8287 h -110.6818 l -19.9236,-61.8287 z m 380.0222,48.526 h 23.9899 c 15.3918,0 27.0538,3.3939 34.9826,10.2483 7.93,6.7868 11.9282,16.7641 11.9282,29.9308 0,12.2839 -3.9308,21.7179 -11.7947,28.1653 -7.9299,6.5157 -19.3237,9.7736 -34.3167,9.7736 h -24.7893 z m 0,126.2369 h 13.6604 c 18.5256,0 31.5854,2.647 39.2491,7.9407 7.6629,5.2935 11.5274,14.1843 11.5274,26.6729 0,12.2162 -3.6646,20.9035 -11.0614,26.0612 -7.3304,5.1585 -20.1903,7.7372 -38.5149,7.7372 h -14.8606 z m -61.1045,-174.7629 v 291.0911 h 53.5079 c 27.7209,0 47.9787,-1.0865 60.8386,-3.2581 12.7948,-2.2399 23.9224,-5.8365 33.2515,-10.859 11.0614,-6.5157 19.6572,-15.067 25.7211,-25.6549 6.0641,-10.5871 9.0629,-22.5998 9.0629,-35.97 0,-17.2389 -4.9975,-31.0847 -15.0596,-41.468 -9.9959,-10.4519 -24.9889,-17.375 -44.9124,-20.7689 23.0558,-3.4614 40.4472,-11.0625 52.2419,-22.8716 11.7944,-11.8094 17.6584,-27.4873 17.6584,-47.1011 0,-14.3206 -3.3984,-27.4186 -10.1282,-39.2964 -6.7972,-11.8768 -16.126,-21.039 -27.9207,-27.5547 -10.5953,-5.8365 -22.922,-9.9763 -37.116,-12.4875 -14.1936,-2.5112 -37.7155,-3.8009 -70.5007,-3.8009 h -6.2637 z m 531.4196,144.968 c 0,-20.8352 -3.7982,-40.5176 -11.3948,-59.0454 -7.6628,-18.5961 -18.5915,-34.8854 -32.9181,-48.9339 -14.8595,-14.4564 -31.5851,-25.5192 -50.1767,-33.1878 -18.5915,-7.6697 -37.849,-11.5381 -57.7734,-11.5381 -17.4578,0 -34.5169,2.9857 -51.2425,9.0269 -16.7255,6.0404 -32.0522,14.7277 -45.9788,25.9937 -17.9912,14.5242 -31.7188,31.9663 -41.3141,52.2595 -9.5287,20.2921 -14.3263,42.0787 -14.3263,65.4251 0,20.9724 3.7984,40.5864 11.3275,58.9788 7.5303,18.3242 18.5916,34.6813 33.1852,49.0016 14.3263,14.1846 30.9184,25.1796 49.8433,32.9842 18.9916,7.8047 38.4488,11.7417 58.5057,11.7417 19.9244,0 39.249,-3.937 58.0396,-11.7417 18.8586,-7.8046 35.4507,-18.7996 49.9105,-32.9842 14.4601,-14.3203 25.4551,-30.6774 32.9845,-49.1374 7.5302,-18.3926 11.3284,-38.0067 11.3284,-58.843 z m -152.263,-97.2564 c 25.9219,0 47.3116,9.2307 64.1707,27.7591 16.8582,18.4603 25.2541,41.6032 25.2541,69.4973 0,27.5556 -8.5286,50.7662 -25.5875,69.5659 -17.0589,18.7996 -38.3159,28.2339 -63.8373,28.2339 -25.9212,0 -47.378,-9.3657 -64.4361,-28.1653 -17.0589,-18.7322 -25.5883,-41.9437 -25.5883,-69.6345 0,-28.0976 8.3959,-51.3765 25.1878,-69.7008 16.7927,-18.3926 38.3822,-27.5556 64.8366,-27.5556 z m 410.542,-47.7116 h -70.4999 l -75.1658,136.0097 v -136.0097 h -61.1047 v 291.0911 h 87.4927 c 34.7176,0 60.7723,-6.8556 78.0302,-20.5653 17.3251,-13.7086 25.9883,-34.4089 25.9883,-61.9637 0,-20.0219 -5.9306,-37.1248 -17.7922,-51.309 -11.7947,-14.1846 -27.1202,-22.4649 -45.8453,-24.84 z m -145.6657,167.0258 h 9.1962 c 24.7221,0 41.0479,2.783 48.977,8.2803 7.9299,5.4969 11.9279,15.067 11.9279,28.7084 0,14.3204 -4.2641,24.5013 -12.7939,30.5413 -8.5294,6.0404 -24.5891,9.0261 -48.111,9.0261 h -9.1962 z m 329.1806,-56.2632 -31.985,94.066 c -0.9331,2.7834 -2.0659,7.5337 -3.5311,14.3206 -1.4,6.7193 -2.9327,14.9996 -4.4651,24.8398 -1.7326,-9.4332 -3.3313,-17.8495 -4.8648,-25.3829 -1.5991,-7.4653 -2.7318,-12.4877 -3.5312,-14.9986 l -30.8522,-92.8449 z m -181.915,-110.7626 108.7497,291.0911 h 69.9004 l 110.2822,-291.0911 h -69.5016 l -23.2557,61.8287 h -110.6818 l -19.9234,-61.8287 z m 403.8786,238.221 v -238.221 h -61.3055 v 238.221 h -69.9004 v 52.8701 h 201.1062 v -52.8701 z m 395.5487,-93.253 c 0,-20.8352 -3.7981,-40.5176 -11.3947,-59.0454 -7.6629,-18.5961 -18.5916,-34.8854 -32.9179,-48.9339 -14.8598,-14.4564 -31.5853,-25.5192 -50.1769,-33.1878 -18.5916,-7.6697 -37.8491,-11.5381 -57.7735,-11.5381 -17.4577,0 -34.5169,2.9857 -51.2425,9.0269 -16.7255,6.0404 -32.0521,14.7277 -45.9788,25.9937 -17.9912,14.5242 -31.7188,31.9663 -41.3138,52.2595 -9.5289,20.2921 -14.3266,42.0787 -14.3266,65.4251 0,20.9724 3.7985,40.5864 11.3276,58.9788 7.5302,18.3242 18.5915,34.6813 33.1852,49.0016 14.3263,14.1846 30.9183,25.1796 49.8432,32.9842 18.9916,7.8047 38.4489,11.7417 58.5057,11.7417 19.9244,0 39.2491,-3.937 58.0397,-11.7417 18.8586,-7.8046 35.4506,-18.7996 49.9107,-32.9842 14.4598,-14.3203 25.4548,-30.6774 32.9842,-49.1374 7.5303,-18.3926 11.3284,-38.0067 11.3284,-58.843 z m -152.263,-97.2564 c 25.922,0 47.3117,9.2307 64.1707,27.7591 16.8582,18.4603 25.2544,41.6032 25.2544,69.4973 0,27.5556 -8.5286,50.7662 -25.5877,69.5659 -17.0589,18.7996 -38.316,28.2339 -63.8374,28.2339 -25.9208,0 -47.378,-9.3657 -64.436,-28.1653 -17.0589,-18.7322 -25.5884,-41.9437 -25.5884,-69.6345 0,-28.0976 8.396,-51.3765 25.1878,-69.7008 16.7928,-18.3926 38.3823,-27.5556 64.8366,-27.5556 z m 410.542,-47.7116 h -70.4999 l -75.1657,136.0097 v -136.0097 h -61.1048 v 291.0911 h 87.4928 c 34.7176,0 60.7722,-6.8556 78.0301,-20.5653 17.3251,-13.7086 25.9883,-34.4089 25.9883,-61.9637 0,-20.0219 -5.9303,-37.1248 -17.7922,-51.309 -11.7944,-14.1846 -27.1202,-22.4649 -45.8453,-24.84 z m -145.6656,167.0258 h 9.1964 c 24.7218,0 41.0477,2.783 48.9767,8.2803 7.93,5.4969 11.9279,15.067 11.9279,28.7084 0,14.3204 -4.2641,24.5013 -12.7938,30.5413 -8.5295,6.0404 -24.5892,9.0261 -48.1108,9.0261 h -9.1964 z M 4220.6,1619.9031 v 291.0911 h 61.1056 v -291.0911 z m 126.2747,0 v 291.0911 h 168.2555 v -52.463 h -107.1507 v -59.9292 h 107.1507 v -52.869 h -107.1507 v -72.9598 h 107.1507 v -52.8701 z m 209.903,37.0561 33.9834,39.0929 c 4.3316,-10.7229 11.1949,-19.1392 20.7238,-25.3156 9.4626,-6.175 20.1243,-9.2294 31.9859,-9.2294 14.3263,0 25.6538,3.4614 33.9837,10.3159 8.3296,6.9228 12.4611,16.1524 12.4611,27.8266 0,13.7772 -13.8603,27.487 -41.5137,41.1284 -8.9966,4.4116 -16.0597,8.0082 -21.3242,10.7915 -24.9879,13.2341 -42.3133,26.1972 -51.9083,38.8208 -9.6624,12.6918 -14.4609,27.7582 -14.4609,45.269 0,24.0256 9.3299,43.7071 27.9878,59.1814 18.7243,15.4066 42.9129,23.1438 72.6994,23.1438 17.325,0 32.2511,-3.0544 44.846,-9.2305 12.5266,-6.1761 23.6552,-15.8139 33.2504,-28.9806 l -36.1156,-35.1555 c -4.2653,8.4838 -9.9958,14.7949 -17.0592,19.0032 -7.0634,4.1397 -15.6592,6.2436 -25.655,6.2436 -12.1277,0 -21.8565,-3.0532 -29.2532,-9.2296 -7.3965,-6.1762 -11.1277,-14.1852 -11.1277,-23.9579 0,-15.4069 14.7263,-29.4554 44.113,-42.1472 5.7969,-2.5787 10.3283,-4.5468 13.4598,-5.9718 24.1894,-11.2671 42.1143,-24.0256 53.7752,-38.211 11.6609,-14.1846 17.4586,-30.3369 17.4586,-48.526 0,-27.2835 -9.129,-49.0691 -27.4536,-65.2901 -18.2579,-16.221 -42.8473,-24.3652 -73.6993,-24.3652 -21.8569,0 -40.5808,3.8684 -56.2408,11.5381 -15.5929,7.6686 -27.254,18.7997 -34.9166,33.2552 z m 455.3881,254.4421 c -14.0604,-28.641 -24.4548,-58.2321 -31.1185,-88.7737 -6.7306,-30.6088 -10.0621,-63.186 -10.0621,-97.731 0,-38.0749 3.3315,-72.1445 9.9286,-102.3463 6.6637,-30.1345 17.0592,-58.5717 31.252,-85.3798 l -44.1131,-10.5194 c -15.1931,29.0481 -26.7205,59.9956 -34.5169,92.8449 -7.7961,32.8482 -11.7281,67.0544 -11.7281,102.6184 0,38.9566 3.7982,74.7233 11.3948,107.2327 7.6629,32.5769 19.2574,63.1859 34.8502,91.963 z m 45.1783,-291.4982 v 291.0911 h 61.1056 v -291.0911 z m 126.2749,0 v 291.0911 h 63.4374 l 126.5411,-169.4021 c 3.5983,-4.7503 7.5963,-11.4695 11.9943,-20.1569 4.3316,-8.6876 8.8628,-18.9357 13.5932,-30.7451 -1.4652,8.6199 -2.5319,17.1712 -3.1314,25.6553 -0.6659,8.4838 -0.9992,19.0706 -0.9992,31.8302 v 162.8186 h 58.3727 v -291.0911 h -59.9054 l -130.0731,172.5913 c -3.5983,4.7503 -7.5963,11.4696 -11.8607,20.1569 -4.3316,8.6876 -8.8628,19.0709 -13.7276,31.1522 1.466,-8.3478 2.5327,-16.8316 3.1322,-25.3831 0.6659,-8.5513 0.9992,-19.2753 0.9992,-32.3059 v -166.2114 z m 394.5495,52.463 h 33.9846 c 31.9847,0 55.374,7.3976 69.9676,22.261 14.6596,14.8627 21.99,38.4138 21.99,70.6513 0,32.0346 -7.3304,55.5849 -21.99,70.4483 -14.5936,14.9313 -37.9829,22.3974 -69.9676,22.3974 h -33.9846 z m -61.1047,-52.463 v 291.0911 h 77.8975 c 30.7187,0 54.9073,-2.1727 72.6329,-6.5834 17.6579,-4.3441 33.2507,-11.6742 46.645,-21.854 17.3251,-13.0992 30.4523,-29.6586 39.3142,-49.6123 8.9295,-19.9536 13.3943,-42.6217 13.3943,-68.0734 0,-25.8577 -4.5312,-48.7979 -13.6604,-68.6829 -9.129,-19.9536 -22.4561,-36.4456 -40.0476,-49.4087 -12.9946,-9.5701 -27.4544,-16.4245 -43.3806,-20.6329 -15.9925,-4.1394 -39.3142,-6.2435 -70.0339,-6.2435 h -21.6567 z m 302.2594,0 v 291.0911 h 61.1056 v -291.0911 z m 274.2724,110.7626 -31.985,94.066 c -0.9329,2.7834 -2.0657,7.5337 -3.5312,14.3206 -1.3997,6.7193 -2.9324,14.9996 -4.4651,24.8398 -1.7323,-9.4332 -3.3313,-17.8495 -4.8648,-25.3829 -1.5988,-7.4653 -2.7315,-12.4877 -3.5311,-14.9986 l -30.852,-92.8449 z m -181.9151,-110.7626 108.7497,291.0911 h 69.9004 l 110.2822,-291.0911 h -69.5016 l -23.2554,61.8287 h -110.6821 l -19.9233,-61.8287 z m 298.8609,291.4982 44.1128,9.9088 c 15.4593,-28.0979 27.0538,-58.7753 34.7167,-91.963 7.6629,-33.1878 11.5285,-68.955 11.5285,-107.2327 0,-35.564 -3.9319,-69.7702 -11.7283,-102.6184 -7.7964,-32.8493 -19.3238,-63.7968 -34.5169,-92.8449 l -44.1128,10.5194 c 14.1928,26.8081 24.5883,55.2453 31.252,85.3798 6.5971,30.2018 9.9283,64.2714 9.9283,102.3463 0,34.8171 -3.3312,67.4618 -10.0621,97.7996 -6.6634,30.3369 -17.0581,59.9281 -31.1182,88.7051 z m 338.7096,-131.8025 h 8.7956 c 16.6583,0 28.7198,3.53 36.2491,10.5205 7.5303,7.058 11.3284,18.324 11.3284,33.7983 0,14.3204 -3.7981,24.7048 -11.3284,31.288 -7.5293,6.5834 -19.5908,9.8404 -36.2491,9.8404 h -8.7956 z m -61.5056,-159.6957 v 291.0911 h 70.3012 c 37.4493,0 65.1691,-7.2626 83.0276,-21.8542 17.9255,-14.5925 26.854,-37.1248 26.854,-67.5975 0,-28.234 -8.9957,-50.3592 -27.0538,-66.4441 -17.9913,-16.0175 -42.9804,-24.0256 -74.8316,-24.0256 h -16.7918 v -111.1697 z m 294.7963,0 -105.6172,291.0911 h 67.5684 l 55.6404,-181.5508 c 1,-3.6641 2.6654,-10.5871 4.8648,-20.6317 2.1994,-10.1123 4.5314,-21.5821 6.9967,-34.41 1.7326,12.42 3.5314,23.4833 5.597,33.1886 1.9996,9.7052 3.9983,17.6459 5.9307,23.8895 l 56.4406,179.5144 h 66.769 l -106.4169,-291.0911 z m 301.8597,238.221 v -238.221 h -61.3054 v 238.221 h -69.9004 v 52.8701 h 201.1062 v -52.8701 z m 53.9079,-210.1909 c 0,9.5692 3.265,17.7134 9.8623,24.5004 6.5962,6.7192 14.4598,10.1123 23.7218,10.1123 9.2624,0 17.1252,-3.3931 23.7223,-10.1123 6.5973,-6.787 9.8623,-14.9312 9.8623,-24.5004 0,-9.434 -3.265,-17.3747 -9.796,-23.9582 -6.4636,-6.5832 -14.3926,-9.841 -23.7886,-9.841 -9.262,0 -17.1256,3.3253 -23.7218,9.9771 -6.5973,6.5835 -9.8623,14.5241 -9.8623,23.8221 z m 250.0841,-28.0301 v 291.0911 h 61.1045 v -238.221 h 97.622 v -52.8701 z m 282.136,238.221 v -238.221 h -61.3055 v 238.221 h -69.9004 v 52.8701 h 201.1062 v -52.8701 z m 170.9863,-185.758 H 7875.5 c 31.985,0 55.3743,7.3976 69.9679,22.261 14.6596,14.8627 21.99,38.4138 21.99,70.6513 0,32.0346 -7.3304,55.5849 -21.99,70.4483 -14.5936,14.9313 -37.9829,22.3974 -69.9679,22.3974 h -33.9843 z m -61.1047,-52.463 v 291.0911 h 77.8975 c 30.7185,0 54.9071,-2.1727 72.6329,-6.5834 17.6579,-4.3441 33.2504,-11.6742 46.645,-21.854 17.3251,-13.0992 30.4523,-29.6586 39.3143,-49.6123 8.9291,-19.9536 13.3942,-42.6217 13.3942,-68.0734 0,-25.8577 -4.5312,-48.7979 -13.6604,-68.6829 -9.129,-19.9536 -22.4561,-36.4456 -40.0476,-49.4087 -12.9946,-9.5701 -27.4544,-16.4245 -43.3806,-20.6329 -15.9925,-4.1394 -39.3145,-6.2435 -70.0339,-6.2435 h -21.6567 z m 280.4037,28.0301 c 0,9.5692 3.265,17.7134 9.8623,24.5004 6.5962,6.7192 14.4598,10.1123 23.7215,10.1123 9.2627,0 17.1255,-3.3931 23.7225,-10.1123 6.5974,-6.787 9.8623,-14.9312 9.8623,-24.5004 0,-9.434 -3.2649,-17.3747 -9.7959,-23.9582 -6.4636,-6.5832 -14.3927,-9.841 -23.7889,-9.841 -9.2617,0 -17.1253,3.3253 -23.7215,9.9771 -6.5973,6.5835 -9.8623,14.5241 -9.8623,23.8221" style="fill:#006fc7;fill-opacity:1;fill-rule:nonzero;stroke:none;stroke-width:20.0376" transform="matrix(1.3333333,0,0,-1.3333333,0,5669.2913)"></path></g></g></svg> 