<svg version="1.1" id="Layer_1" xmlns="http://www.w3.org/2000/svg" xmlns:xlink="http://www.w3.org/1999/xlink" x="0px" y="0px" width="900px" height="170px" viewBox="15 50 470 90" style="enable-background:new 0 0 500 200;" xml:space="preserve">
<style type="text/css">
	.st0{fill-rule:evenodd;clip-rule:evenodd;fill:#231545;}
	.st1{fill-rule:evenodd;clip-rule:evenodd;fill:#00A8E5;}
	.st2{fill-rule:evenodd;clip-rule:evenodd;fill:#17ABE2;}
	.st3{fill-rule:evenodd;clip-rule:evenodd;fill:#1E9ED8;}
	.st4{fill-rule:evenodd;clip-rule:evenodd;fill:#2F8FCD;}
	.st5{fill-rule:evenodd;clip-rule:evenodd;fill:#3F80C2;}
	.st6{fill-rule:evenodd;clip-rule:evenodd;fill:#5376B8;}
	.st7{fill-rule:evenodd;clip-rule:evenodd;fill:#6867AD;}
	.st8{fill-rule:evenodd;clip-rule:evenodd;fill:#7D58A2;}
	.st9{fill-rule:evenodd;clip-rule:evenodd;fill:#8D499A;}
	.st10{fill-rule:evenodd;clip-rule:evenodd;fill:#80438F;}
	.st11{fill-rule:evenodd;clip-rule:evenodd;fill:#733B80;}
	.st12{fill-rule:evenodd;clip-rule:evenodd;fill:#633377;}
	.st13{fill-rule:evenodd;clip-rule:evenodd;fill:#532A69;}
	.st14{fill-rule:evenodd;clip-rule:evenodd;fill:#43215B;}
	.st15{fill-rule:evenodd;clip-rule:evenodd;fill:#331C51;}
</style>
<g>
	<path class="st0" d="M83.13,71.3c-1.97-3.79-6.02-6.32-10.05-7.37c-3.6-0.93-7.53-0.48-10.97,0.9c-1.72,0.7-3.3,1.71-4.77,2.84
		c-1.44,1.12-2.81,2.51-3.94,3.94c-4.18,5.29-6.04,12.16-4.31,18.7c1.48,5.55,5.64,8.06,7.96,9.33l0-0.01
		c-1.66-2.07-4.54-5.98-3.78-11.67c0.9-6.71,5.25-12.35,11.13-15.63c1.59-0.89,3.38-1.65,5.15-2.13c1.78-0.49,3.64-0.83,5.49-0.81
		c2.77,0.03,5.58,0.64,8.07,1.88L83.13,71.3z"></path>
	<path class="st1" d="M70.29,63.48c-3.28-2.75-7.98-3.54-12.11-2.96c-3.68,0.53-7.15,2.45-9.78,5.04c-1.33,1.3-2.4,2.84-3.32,4.45
		c-0.91,1.58-1.63,3.4-2.13,5.15c-1.84,6.49-0.93,13.54,3.18,18.93c3.48,4.56,8.29,5.29,10.92,5.58l0,0.01
		c-2.32-1.28-6.49-3.79-7.96-9.33c-1.74-6.54,0.13-13.41,4.31-18.7c1.13-1.43,2.5-2.82,3.94-3.94c1.47-1.13,3.04-2.15,4.76-2.84
		c2.57-1.03,5.41-1.55,8.19-1.35L70.29,63.48z"></path>
	<path class="st2" d="M55.45,61.17c-4.08-1.29-8.74-0.22-12.33,1.9c-3.21,1.89-5.66,4.99-7.12,8.39c-0.73,1.71-1.12,3.54-1.36,5.38
		c-0.23,1.81-0.22,3.76,0,5.57c0.79,6.7,4.32,12.86,10.18,16.27c4.96,2.88,9.68,1.71,12.23,0.97c-2.63-0.29-7.44-1.01-10.92-5.58
		c-4.11-5.38-5.02-12.44-3.18-18.93c0.5-1.75,1.23-3.56,2.13-5.15c0.92-1.6,1.99-3.15,3.32-4.45c1.97-1.94,4.39-3.5,7.04-4.38H55.45
		z"></path>
	<path class="st3" d="M57.04,99.66c-2.07,1.65-5.99,4.55-11.67,3.79c-6.71-0.91-12.35-5.24-15.63-11.13
		c-0.89-1.6-1.65-3.39-2.13-5.15c-0.49-1.78-0.82-3.64-0.8-5.49c0.03-3.7,1.12-7.5,3.36-10.48c2.51-3.34,6.4-6.1,10.67-6.46l0,0
		c-2.1,1.82-3.74,4.2-4.82,6.73c-0.73,1.71-1.12,3.54-1.36,5.38c-0.23,1.81-0.22,3.76,0,5.57c0.79,6.7,4.32,12.86,10.18,16.27
		c4.96,2.88,9.68,1.71,12.23,0.96L57.04,99.66z"></path>
	<path class="st4" d="M57.05,99.66c-1.28,2.33-3.79,6.5-9.33,7.96c-6.55,1.73-13.41-0.12-18.7-4.3c-1.43-1.13-2.82-2.5-3.94-3.94
		c-1.13-1.46-2.15-3.04-2.84-4.76c-1.38-3.43-1.84-7.37-0.91-10.96c1.04-4.03,3.57-8.07,7.36-10.05h0.01
		c-1.25,2.49-1.86,5.31-1.89,8.07c-0.02,1.86,0.32,3.71,0.8,5.5c0.48,1.76,1.24,3.55,2.13,5.15c3.28,5.89,8.92,10.23,15.63,11.13
		C51.05,104.21,54.97,101.31,57.05,99.66L57.05,99.66z"></path>
	<path class="st5" d="M20.88,86.42c-2.74,3.28-3.54,7.97-2.95,12.1c0.52,3.69,2.44,7.14,5.03,9.78c1.3,1.33,2.85,2.39,4.45,3.32
		c1.58,0.91,3.39,1.64,5.15,2.14c6.48,1.84,13.54,0.93,18.92-3.19c4.56-3.47,5.29-8.29,5.58-10.92l0,0
		c-1.28,2.33-3.79,6.5-9.33,7.96c-6.55,1.74-13.41-0.12-18.7-4.3c-1.43-1.13-2.82-2.5-3.94-3.94c-1.13-1.46-2.15-3.04-2.84-4.77
		c-1.03-2.56-1.55-5.4-1.35-8.17L20.88,86.42z"></path>
	<path class="st6" d="M18.57,101.27c-1.29,4.08-0.22,8.73,1.9,12.32c1.9,3.21,4.99,5.66,8.39,7.11c1.71,0.73,3.55,1.12,5.38,1.35
		c1.82,0.24,3.77,0.22,5.57,0.01c6.69-0.78,12.87-4.33,16.27-10.18c2.88-4.96,1.71-9.68,0.97-12.23l0-0.01
		c-0.29,2.64-1.02,7.45-5.58,10.92c-5.38,4.11-12.44,5.03-18.92,3.19c-1.76-0.5-3.57-1.23-5.15-2.14c-1.6-0.92-3.15-1.99-4.45-3.32
		c-1.93-1.97-3.49-4.39-4.37-7.02L18.57,101.27z"></path>
	<path class="st7" d="M22.1,115.86c0.37,4.27,3.14,8.16,6.47,10.68c2.98,2.23,6.78,3.32,10.48,3.36c1.85,0.02,3.71-0.32,5.5-0.8
		c1.75-0.48,3.56-1.24,5.15-2.13c5.88-3.29,10.22-8.92,11.12-15.63c0.77-5.69-2.12-9.61-3.78-11.67l0.01-0.01
		c0.74,2.55,1.91,7.27-0.97,12.23c-3.4,5.85-9.58,9.4-16.27,10.18c-1.8,0.21-3.76,0.23-5.57-0.01c-1.83-0.23-3.67-0.63-5.38-1.35
		C26.31,119.63,23.94,117.97,22.1,115.86L22.1,115.86z"></path>
	<path class="st8" d="M57.04,99.66c2.33,1.27,6.5,3.79,7.96,9.33c1.74,6.55-0.12,13.41-4.3,18.7c-1.13,1.43-2.5,2.82-3.95,3.94
		c-1.47,1.13-3.05,2.15-4.77,2.84c-3.43,1.38-7.36,1.83-10.97,0.91c-4.03-1.04-8.07-3.57-10.05-7.35l0,0
		c2.49,1.23,5.3,1.85,8.07,1.87c1.85,0.02,3.71-0.31,5.49-0.8c1.75-0.48,3.56-1.25,5.15-2.13c5.88-3.29,10.23-8.92,11.13-15.63
		C61.59,105.65,58.7,101.73,57.04,99.66L57.04,99.66z"></path>
	<path class="st9" d="M57.07,99.66c2.63,0.29,7.44,1.02,10.92,5.58c4.11,5.38,5.02,12.44,3.18,18.93c-0.5,1.75-1.22,3.56-2.13,5.15
		c-0.92,1.6-1.99,3.15-3.32,4.45c-2.64,2.59-6.1,4.51-9.79,5.03c-4.13,0.58-8.83-0.21-12.11-2.96h0c2.78,0.19,5.61-0.33,8.17-1.36
		c1.72-0.69,3.3-1.71,4.77-2.84c1.45-1.12,2.81-2.51,3.95-3.94c4.17-5.29,6.04-12.15,4.3-18.7c-1.46-5.54-5.63-8.06-7.96-9.33H57.07
		z"></path>
	<path class="st10" d="M58.68,138.14c4.08,1.28,8.72,0.22,12.31-1.91c3.21-1.89,5.66-4.99,7.11-8.39c0.73-1.71,1.13-3.55,1.36-5.38
		c0.24-1.81,0.22-3.76,0-5.58c-0.78-6.69-4.32-12.86-10.18-16.26c-4.96-2.89-9.69-1.71-12.23-0.97l0.01,0.01
		c2.63,0.29,7.44,1.02,10.92,5.58c4.11,5.38,5.02,12.44,3.18,18.93c-0.5,1.75-1.22,3.55-2.13,5.15c-0.92,1.6-1.99,3.15-3.32,4.45
		c-1.97,1.93-4.38,3.48-7.01,4.37L58.68,138.14z"></path>
	<path class="st11" d="M57.05,99.64c2.07-1.66,5.99-4.55,11.67-3.78c6.71,0.9,12.34,5.24,15.63,11.13c0.89,1.59,1.65,3.39,2.13,5.15
		c0.49,1.79,0.82,3.64,0.8,5.49c-0.04,3.7-1.13,7.5-3.36,10.48c-2.5,3.33-6.39,6.09-10.64,6.46v-0.01c2.09-1.82,3.73-4.18,4.81-6.72
		c0.73-1.71,1.13-3.54,1.36-5.38c0.24-1.81,0.22-3.76,0-5.57c-0.78-6.69-4.32-12.86-10.18-16.26c-4.96-2.88-9.69-1.71-12.23-0.97
		V99.64z"></path>
	<path class="st12" d="M85.39,125.71c3.8-1.97,6.33-6.02,7.37-10.06c0.94-3.6,0.48-7.53-0.9-10.96c-0.7-1.72-1.72-3.3-2.85-4.76
		c-1.11-1.45-2.51-2.81-3.94-3.94c-5.29-4.18-12.15-6.03-18.7-4.3c-5.54,1.46-8.05,5.63-9.33,7.96h0c2.07-1.66,5.99-4.55,11.67-3.78
		c6.71,0.9,12.35,5.24,15.63,11.13c0.89,1.59,1.66,3.39,2.14,5.15c0.48,1.79,0.82,3.64,0.8,5.49c-0.03,2.76-0.64,5.57-1.87,8.05
		L85.39,125.71z"></path>
	<path class="st13" d="M57.05,99.63c0.28-2.63,1.01-7.45,5.57-10.93c5.38-4.11,12.44-5.02,18.92-3.18c1.76,0.49,3.57,1.23,5.15,2.14
		c1.61,0.92,3.16,1.99,4.46,3.31c2.58,2.64,4.51,6.1,5.02,9.78c0.59,4.13-0.21,8.83-2.95,12.1c0.19-2.77-0.33-5.61-1.35-8.17
		c-0.69-1.72-1.72-3.3-2.84-4.76c-1.12-1.45-2.51-2.81-3.94-3.94c-5.29-4.18-12.16-6.04-18.7-4.3
		C60.84,93.15,58.32,97.32,57.05,99.63L57.05,99.63z"></path>
	<path class="st14" d="M57.04,99.63c-0.75-2.55-1.92-7.27,0.96-12.23c3.4-5.85,9.57-9.4,16.27-10.18c1.81-0.22,3.76-0.23,5.57,0
		c1.84,0.24,3.68,0.63,5.39,1.36c3.4,1.45,6.5,3.91,8.39,7.11c2.12,3.58,3.19,8.23,1.91,12.3V98c-0.88-2.63-2.44-5.05-4.37-7.02
		c-1.3-1.32-2.85-2.4-4.46-3.31c-1.58-0.91-3.39-1.64-5.15-2.14c-6.48-1.84-13.54-0.93-18.92,3.18c-4.57,3.48-5.29,8.29-5.57,10.93
		L57.04,99.63z"></path>
	<path class="st15" d="M57.04,99.63c-0.75-2.55-1.92-7.27,0.96-12.23c3.4-5.85,9.57-9.4,16.27-10.18c1.81-0.22,3.76-0.23,5.57,0
		c1.84,0.24,3.68,0.63,5.39,1.36c2.55,1.08,4.93,2.74,6.76,4.84l0.01,0.02c-0.37-4.27-3.14-8.16-6.48-10.67
		c-2.97-2.23-6.78-3.32-10.48-3.36c-1.85-0.01-3.71,0.32-5.49,0.81c-1.76,0.47-3.56,1.24-5.15,2.13
		c-5.88,3.29-10.23,8.92-11.13,15.63c-0.76,5.69,2.12,9.6,3.78,11.67L57.04,99.63z"></path>
	<path class="st0" stroke="#231545" d="M238.53,118.37V81.41c0-0.72,0.12-3.47,3.69-3.47h9.89c8.71,0,14.75,5.29,14.75,15.99v11.52
		c0,10.7-6.04,16.36-14.75,16.36h-9.92C238.18,121.82,238.53,118.37,238.53,118.37 M252.1,120.58c7.96,0,13.5-5.29,13.5-15.12V93.94
		c0-9.96-5.54-14.75-13.5-14.75h-9.84c-2.75,0-2.49,2.37-2.49,2.37v36.65c0,0.96-0.24,2.37,2.41,2.37H252.1z"></path>
	<path class="st0" stroke="#231545" d="M270.26,77.95l14.92,23.82c0,0,0.73,1.11,1.43-0.01c0.7-1.12,14.97-23.81,14.97-23.81h1.37l-16.43,26.21v17.67
		h-1.24v-17.67l-16.38-26.21H270.26z"></path>
	<path class="st0" stroke="#231545" d="M311.98,120.58h20.27v1.24h-20.3c-4.38,0-4.04-3.65-4.04-3.65V81.73c0,0-0.43-3.79,4.07-3.79h20.27v1.24
		h-20.27c-3.24,0-2.82,2.52-2.82,2.52v17.15h16.37v1.25h-16.37v18.07C309.16,118.73,308.94,120.58,311.98,120.58"></path>
	<path class="st0" stroke="#231545" d="M461.73,120.58H482v1.24h-20.31c-4.38,0-4.03-3.65-4.03-3.65V81.73c0,0-0.44-3.79,4.07-3.79H482v1.24h-20.27
		c-3.24,0-2.83,2.52-2.83,2.52v17.15h16.38v1.25H458.9v18.07C458.9,118.73,458.69,120.58,461.73,120.58"></path>
	<path class="st0" stroke="#231545" d="M348.55,121.82l-12.88-43.88h1.37l11.63,39.64c0.07,0.24,0.44,1.13,0.75-0.02
		c0.35-1.26,10.59-39.62,10.59-39.62h1.12l10.58,39.55c0.08,0.32,0.5,1.08,0.79-0.01c0.36-1.26,11.6-39.54,11.6-39.54h1.37
		l-12.95,43.88h-0.93c0,0-10.44-38.75-10.63-39.4c-0.18-0.64-0.73-0.41-0.78,0l-10.62,39.39H348.55z"></path>
	<path class="st0" stroke="#231545" d="M417.88,121.82l-4.6-12.38h-22.97l-4.8,12.38h-1.3l16.93-43.87h1.43l16.68,43.87H417.88z M390.75,108.32h22.09
		l-10.47-27.65c-0.07-0.23-0.33-0.89-0.49-0.89c-0.26,0-0.36,0.28-0.58,0.88C400.73,82.17,390.75,108.32,390.75,108.32"></path>
	<path class="st0" stroke="#231545" d="M425.48,106.58v15.25h-1.24V81.71c0,0-0.36-3.76,3.76-3.76h8.44c8.65,0,14.69,4.79,14.69,13.44v1.99
		c0,8.22-5.47,12.76-13.38,13.2l13.38,15.25h-1.68l-13.38-15.25H425.48z M425.48,105.33h10.95c7.91,0,13.45-4.17,13.45-11.95v-1.99
		c0-7.91-5.54-12.2-13.45-12.2H428c-2.8,0-2.52,2.56-2.52,2.56V105.33z"></path>
	<path class="st0" d="M165.56,80.06c0,0,1.18-2.38,1.68-2.38c0.52,0,1.5,2.44,1.5,2.44l19.61,39.29c0,0,0.63,1.69-0.92,1.69h-6.79
		c0,0-0.85,0.22-1.52-1.13c0,0-10.01-19.46-10.7-21.18c-0.49-1.2-1.16-2.73-2.4,0.08l-10.38,20.76c0,0-0.59,1.51-2.25,1.51h-6.12
		c0,0-1.66,0.12-0.62-1.74C146.66,119.4,165.53,80.11,165.56,80.06"></path>
	<path class="st0" d="M197.27,119.14c0,0-1.18,2.38-1.69,2.38c-0.5,0-1.49-2.44-1.49-2.44l-19.61-40.19c0,0-0.63-1.69,0.92-1.69
		h6.79c0,0,0.84-0.23,1.52,1.13c0,0,10.01,19.47,10.7,21.18c0.5,1.2,1.16,2.73,2.39-0.08l10.38-20.76c0,0,0.6-1.52,2.26-1.52h6.12
		c0,0,1.66-0.12,0.62,1.74C216.17,78.89,197.3,119.08,197.27,119.14"></path>
	<path class="st0" d="M219.35,78.99v41.23c0,0-0.07,0.96,0.84,0.96h7.3c1.12,0,1.02-1.03,1.02-1.03V84.89v-2.64l3.75-4.06v-1.03
		c0,0-9.45,0-11.33,0C219.2,77.15,219.35,78.99,219.35,78.99"></path>
	<path class="st0" d="M126,77.19h-11.82l0,42.23c0,0-0.21,1.71,2.12,1.71h5.21c0,0,1.89,0.36,1.89-2.23v-8.31h3.7
		c0,0,18.34,0.48,18.34-16.59C145.45,93.99,146.56,77.18,126,77.19 M125.97,102.86h-2.52V84.78h2.69c9.71,0,9.94,9.1,9.94,9.1
		C136.08,103.65,125.97,102.86,125.97,102.86"></path>
	<path class="st0" d="M138.21,107.7l6.49,11.95c0.83,1.36,0.4,1.4-0.77,1.4c-1.58,0-5.1,0-7.03,0c-1.41-0.04-2.01-1.2-2.01-1.2
		l-6.18-11.19L138.21,107.7z"></path>
</g>
</svg>