<svg xmlns="http://www.w3.org/2000/svg" width="380.0914705164639" height="263.09456474811486" viewBox="0 0 2560 1772" version="1.1"><path d="M 1066.174 884.078 C 1053.464 885.801, 1040.007 896.429, 1033.715 909.712 C 1030.730 916.014, 1030.500 917.251, 1030.500 927 C 1030.500 936.728, 1030.734 937.994, 1033.685 944.223 C 1039.130 955.718, 1049.243 964.744, 1060.900 968.514 C 1069.256 971.216, 1081.676 970.211, 1090.202 966.142 C 1102.011 960.506, 1112.592 946.833, 1114.986 934.114 C 1117.933 918.457, 1113.909 905.878, 1102.500 895.088 C 1094.434 887.460, 1088.412 884.999, 1074.500 883.647 C 1072.850 883.487, 1069.103 883.681, 1066.174 884.078 M -0 921.851 L -0 933.797 7.250 934.521 C 21.589 935.954, 42.135 940.720, 48.946 944.194 C 56.266 947.928, 59.153 951.470, 61.776 959.937 C 63.380 965.112, 63.500 977.596, 63.500 1139 C 63.500 1334.968, 64.130 1319.564, 55.745 1328.661 C 48.417 1336.611, 41.558 1338.853, 16.621 1341.450 C 8.437 1342.303, 1.350 1343, 0.871 1343 C 0.392 1343, 0 1348.400, 0 1355 L 0 1367 101 1367 L 202 1367 202 1355.226 L 202 1343.452 184.930 1341.667 C 153.089 1338.338, 143.166 1333.856, 138.364 1320.633 C 136.615 1315.816, 136.483 1310.707, 136.221 1237.750 L 135.941 1160 160.221 1160.040 L 184.500 1160.080 204 1184.688 C 248.244 1240.523, 291.467 1299.649, 326.492 1352.250 L 336.314 1367 400.657 1367 L 465 1367 465 1355.155 L 465 1343.309 454.750 1342.099 C 432.805 1339.509, 422.762 1336.008, 406.535 1325.294 C 388.774 1313.568, 385.914 1310.206, 308.453 1210 C 298.037 1196.525, 281.959 1175.862, 272.725 1164.082 C 263.491 1152.302, 256.288 1142.355, 256.718 1141.976 C 257.148 1141.598, 261.550 1140.049, 266.500 1138.535 C 285.901 1132.600, 309.246 1121.944, 322.630 1112.913 C 358.124 1088.961, 374.095 1054.549, 370.856 1009 C 367.546 962.444, 332.890 928.326, 276.408 916.018 C 251.190 910.523, 254.922 910.663, 122.750 910.270 L 0 909.905 -0 921.851 M 844 913.266 C 812.925 914.913, 787.198 916.539, 786.830 916.880 C 786.461 917.221, 786.417 922.397, 786.730 928.383 L 787.301 939.266 794.400 938.662 C 798.305 938.330, 804.698 937.761, 808.607 937.396 C 819.631 936.369, 826.111 937.541, 831.296 941.500 C 836.695 945.622, 838.636 949.544, 841.131 961.365 C 842.919 969.834, 843.242 981.977, 845.566 1128 C 846.944 1214.625, 847.943 1294.500, 847.786 1305.500 C 847.463 1328.091, 846.742 1330.754, 839.279 1336.938 C 834.341 1341.029, 828.078 1342.772, 812.921 1344.272 L 800.500 1345.502 800.500 1356.001 L 800.500 1366.500 878.750 1366.756 L 957 1367.012 957 1356.151 L 957 1345.289 950.750 1344.681 C 936.520 1343.296, 920.368 1336.793, 915.585 1330.522 C 909.533 1322.588, 909.959 1337.039, 909.289 1116.702 L 908.675 914.904 905.761 912.452 C 904.158 911.103, 902.319 910.061, 901.673 910.136 C 901.028 910.210, 875.075 911.619, 844 913.266 M 136 1034.623 L 136 1132.247 166.250 1131.716 C 192.176 1131.262, 197.930 1130.877, 206.500 1129.024 C 224.266 1125.182, 237.939 1118.585, 252.631 1106.766 C 277.479 1086.777, 290.422 1052.572, 286.991 1015.967 C 284.790 992.484, 278.051 977.121, 263.500 962.414 C 254.071 952.884, 245.072 947.294, 232.303 943.035 C 216.986 937.926, 207.513 937.012, 169.750 937.006 L 136 937 136 1034.623 M 608.708 1041.099 C 551.223 1047.481, 503.259 1088.228, 483.925 1147.105 C 474.399 1176.117, 472.105 1204.208, 476.586 1237 C 486.689 1310.930, 530.981 1359.858, 598.978 1372.204 C 616.292 1375.347, 648.137 1375.346, 663.763 1372.201 C 705.075 1363.887, 741.039 1338.376, 764.252 1300.920 L 770.004 1291.639 758.350 1284.787 C 751.941 1281.018, 746.351 1278.062, 745.929 1278.217 C 745.507 1278.373, 742.361 1282.775, 738.938 1288 C 723.406 1311.708, 709.355 1324.534, 690.824 1331.921 C 665.197 1342.135, 629.064 1340.898, 604.072 1328.950 C 566.077 1310.786, 545.497 1271.519, 542.385 1211.250 L 541.701 1198 651.850 1198 L 762 1198 761.990 1185.250 C 761.962 1151.545, 756.928 1125.720, 746.247 1104.500 C 729.376 1070.983, 699.502 1049.841, 659.297 1042.965 C 645.436 1040.594, 621.281 1039.703, 608.708 1041.099 M 1322.500 1040.619 C 1306.293 1042.367, 1283.147 1048.833, 1267.184 1056.071 C 1251.431 1063.213, 1232.431 1078.617, 1224.342 1090.804 C 1214.769 1105.226, 1214.603 1124.356, 1223.925 1138.883 C 1228.004 1145.240, 1232.963 1148.577, 1241.441 1150.669 C 1247.275 1152.108, 1249.611 1152.199, 1256.907 1151.268 C 1267.876 1149.868, 1273.746 1147.299, 1280.438 1140.970 C 1288.329 1133.508, 1290.421 1127.977, 1289.694 1116.507 C 1289.380 1111.553, 1287.970 1102.464, 1286.561 1096.310 C 1285.153 1090.155, 1284 1083.773, 1284 1082.128 C 1284 1078.573, 1286.727 1076.359, 1296.636 1071.866 C 1307.644 1066.874, 1317.066 1064.883, 1330 1064.815 C 1350.816 1064.705, 1361.557 1068.548, 1373.465 1080.368 C 1388.993 1095.781, 1393.988 1111.778, 1393.996 1146.113 L 1394 1163.727 1388.250 1166.291 C 1376.552 1171.506, 1366.714 1175.038, 1333.500 1185.944 C 1282.892 1202.562, 1265.518 1208.689, 1255.100 1213.592 C 1215.605 1232.178, 1197.802 1262.040, 1201.160 1304.070 C 1203.281 1330.612, 1217.640 1351.824, 1242.039 1364.455 C 1258.407 1372.929, 1276.619 1375.988, 1299.302 1374.074 C 1334.587 1371.095, 1356.774 1361.201, 1384.884 1335.909 C 1390.489 1330.867, 1395.189 1326.912, 1395.329 1327.120 C 1395.470 1327.329, 1396.140 1329.750, 1396.820 1332.500 C 1400.264 1346.448, 1410.841 1359.871, 1423.090 1365.842 C 1434.227 1371.271, 1440.705 1372.502, 1458 1372.478 C 1475.286 1372.454, 1478.072 1371.966, 1498.707 1365.349 L 1513 1360.766 1513 1350.383 C 1513 1341.189, 1512.800 1339.992, 1511.250 1339.926 C 1483.138 1338.741, 1479.344 1338.345, 1474.729 1336.111 C 1468.466 1333.079, 1461.379 1326.061, 1458.680 1320.220 C 1456.581 1315.676, 1456.500 1314.286, 1456.500 1283 C 1456.500 1265.125, 1456.892 1224.400, 1457.371 1192.500 C 1458.139 1141.304, 1458.050 1133.067, 1456.614 1122.282 C 1452.399 1090.625, 1440.007 1069.952, 1417.007 1056.204 C 1403.514 1048.138, 1390.988 1044.317, 1370.500 1042.013 C 1360.407 1040.879, 1328.646 1039.956, 1322.500 1040.619 M 2093 1041.036 C 2066.081 1044.348, 2044.655 1052.280, 2022.349 1067.192 C 1992.876 1086.896, 1968.299 1121.908, 1958.606 1158 C 1953.541 1176.860, 1952.579 1184.946, 1952.596 1208.500 C 1952.617 1236.734, 1954.945 1252.964, 1962.134 1275 C 1974.188 1311.945, 1998.699 1341.806, 2030.361 1358.121 C 2065.309 1376.128, 2111.448 1379.934, 2149 1367.905 C 2159.245 1364.623, 2180.646 1353.591, 2190.500 1346.512 C 2209.865 1332.599, 2228.223 1312.614, 2239.325 1293.360 C 2239.729 1292.658, 2235.917 1289.676, 2229.416 1285.610 C 2223.604 1281.974, 2218.499 1279, 2218.071 1279 C 2217.643 1279, 2215.234 1282.097, 2212.717 1285.882 C 2201.584 1302.625, 2186.457 1317.922, 2172.809 1326.239 C 2153.380 1338.080, 2123.349 1342.074, 2099.439 1335.997 C 2049.817 1323.386, 2019.642 1267.788, 2022.347 1193.950 C 2023.824 1153.646, 2032.166 1122.065, 2047.297 1099.500 C 2053.564 1090.153, 2066.392 1078.047, 2074.500 1073.827 C 2087.175 1067.230, 2094.647 1065.494, 2110 1065.578 C 2130.424 1065.689, 2140.676 1068.811, 2148.979 1077.448 L 2152.457 1081.067 2150.074 1092.284 C 2148.764 1098.453, 2146.868 1107.325, 2145.861 1112 C 2143.157 1124.556, 2143.179 1137.352, 2145.917 1143.563 C 2152.098 1157.585, 2168.860 1165.999, 2188.065 1164.719 C 2207.143 1163.447, 2217.574 1151.796, 2220.492 1128.500 C 2221.357 1121.596, 2219.381 1106.987, 2216.367 1098.010 C 2206.874 1069.731, 2178.520 1049.258, 2139.500 1042.509 C 2128.427 1040.593, 2103.113 1039.791, 2093 1041.036 M 2400 1041.048 C 2361.809 1045.809, 2329.068 1063.164, 2305.765 1091 C 2269.784 1133.978, 2256.900 1192.735, 2270.090 1253.695 C 2274.017 1271.842, 2282.644 1293.779, 2291.251 1307.500 C 2315.459 1346.094, 2354.401 1369.083, 2403.856 1373.975 C 2454.805 1379.016, 2497.520 1364.468, 2531.504 1330.500 C 2542.058 1319.951, 2556.783 1300.171, 2559.508 1292.882 C 2559.972 1291.640, 2557.464 1289.726, 2548.691 1284.632 C 2542.409 1280.985, 2537.034 1278, 2536.746 1278 C 2536.458 1278, 2532.827 1283.063, 2528.677 1289.250 C 2511.220 1315.280, 2494.696 1328.743, 2472.500 1335.025 C 2447.596 1342.073, 2414.977 1339.136, 2392.269 1327.800 C 2356.453 1309.921, 2335.573 1269.189, 2333.292 1212.750 L 2332.696 1198 2442.348 1198 L 2552 1198 2552 1179.724 C 2552 1151.738, 2549.098 1134.331, 2540.965 1113.529 C 2533.260 1093.823, 2516.469 1072.725, 2500 1062.056 C 2485.527 1052.681, 2466.290 1045.455, 2448 1042.524 C 2436.102 1040.617, 2409.917 1039.812, 2400 1041.048 M 1744.500 1042.615 C 1732.761 1044.720, 1721.734 1048.319, 1711.010 1053.544 C 1697.312 1060.217, 1688.473 1066.817, 1666.535 1086.750 C 1662.146 1090.737, 1658.206 1094, 1657.778 1094 C 1657.350 1094, 1657 1083.960, 1657 1071.688 L 1657 1049.376 1654.250 1047.376 L 1651.500 1045.375 1596.500 1048.937 L 1541.500 1052.500 1541.217 1063.174 L 1540.934 1073.848 1546.717 1074.488 C 1557.538 1075.685, 1567.050 1077.963, 1572.626 1080.693 C 1582.653 1085.603, 1590.761 1096.933, 1593.030 1109.204 C 1593.688 1112.763, 1593.942 1151.110, 1593.752 1218.099 C 1593.427 1332.487, 1593.851 1325.480, 1586.776 1333.517 C 1581.854 1339.109, 1575.039 1341.708, 1561.654 1343.098 C 1556.069 1343.677, 1550.037 1344.363, 1548.250 1344.621 L 1545 1345.091 1545 1356.045 L 1545 1367 1626.500 1367 L 1708 1367 1708 1356.019 C 1708 1343.464, 1709.445 1345.001, 1695.867 1343.120 C 1674.585 1340.172, 1660.896 1331.067, 1658.092 1317.994 C 1657.347 1314.520, 1657 1283.399, 1657 1220.063 L 1657 1127.224 1660.644 1121.862 C 1670.659 1107.126, 1680.213 1098.994, 1697.500 1090.490 C 1712.595 1083.065, 1720.595 1080.978, 1736.599 1080.291 C 1757.398 1079.397, 1767.970 1083.060, 1780.472 1095.492 C 1791.875 1106.830, 1797.119 1119.204, 1799.045 1139.313 C 1799.741 1146.583, 1800.009 1180.439, 1799.808 1236 L 1799.500 1321.500 1797.199 1326.500 C 1792.158 1337.453, 1784.798 1341.448, 1766.567 1343.130 C 1760.480 1343.691, 1754.037 1344.362, 1752.250 1344.621 L 1749 1345.091 1749 1356.045 L 1749 1367 1830.500 1367 L 1912 1367 1912 1356.045 L 1912 1345.091 1908.750 1344.589 C 1906.963 1344.314, 1903.250 1343.820, 1900.500 1343.492 C 1894.287 1342.751, 1881.805 1338.706, 1876.547 1335.727 C 1871.161 1332.678, 1866.414 1326.157, 1865.092 1319.994 C 1864.349 1316.528, 1864 1286.327, 1864 1225.411 C 1864 1168.365, 1863.611 1132.434, 1862.928 1126.303 C 1860.055 1100.542, 1850.926 1079.207, 1836.500 1064.537 C 1825.170 1053.016, 1811.386 1046.047, 1793.049 1042.569 C 1782.549 1040.577, 1755.718 1040.602, 1744.500 1042.615 M 1046 1051.548 C 1017.675 1053.366, 993.038 1054.887, 991.250 1054.927 L 988 1055 988 1066 L 988 1077 991.390 1077 C 996.200 1077, 1010.344 1079.721, 1018 1082.119 C 1030.691 1086.094, 1039.424 1093.977, 1044.177 1105.748 L 1046.500 1111.500 1046.500 1216 C 1046.500 1316.104, 1046.420 1320.706, 1044.609 1325.404 C 1043.568 1328.101, 1041.202 1331.984, 1039.350 1334.034 C 1033.657 1340.336, 1027.625 1342.119, 1003.750 1344.557 L 998 1345.144 998 1356.072 L 998 1367 1078 1367 L 1158 1367 1158 1356.061 L 1158 1345.123 1153.250 1344.485 C 1144.318 1343.287, 1132.504 1339.878, 1125.285 1336.417 C 1117.518 1332.694, 1114.196 1329.261, 1111.270 1321.931 C 1109.613 1317.783, 1109.482 1309.034, 1109.222 1185.034 L 1108.943 1052.569 1106.797 1050.284 C 1104.220 1047.541, 1110.443 1047.411, 1046 1051.548 M 611.500 1066.411 C 593.825 1069.868, 579.202 1078.679, 567.650 1092.833 C 552.712 1111.136, 545.629 1131.188, 542.422 1164.250 L 541.767 1171 618.459 1171 L 695.150 1171 694.507 1161.750 C 693.412 1145.996, 690.909 1127.905, 688.521 1118.489 C 681.748 1091.776, 666.652 1074.111, 645 1067.559 C 637.479 1065.283, 620.282 1064.694, 611.500 1066.411 M 2403.238 1066.040 C 2363.999 1073.101, 2337.017 1110.193, 2333.329 1162.145 L 2332.701 1171 2409.004 1171 L 2485.308 1171 2484.678 1157.750 C 2483.730 1137.809, 2479.728 1116.383, 2474.733 1104.500 C 2467.450 1087.173, 2452.576 1072.733, 2437.072 1067.938 C 2429.443 1065.578, 2411.422 1064.567, 2403.238 1066.040 M 1375.175 1197.150 C 1329.281 1211.120, 1306.009 1222.655, 1288.900 1239.915 C 1275.276 1253.659, 1269.035 1268.610, 1269.035 1287.500 C 1269.035 1313.840, 1280.921 1330.476, 1304.071 1336.535 C 1311.655 1338.521, 1327.512 1338.765, 1336.870 1337.042 C 1352.999 1334.071, 1369.163 1324.869, 1384.022 1310.199 L 1392.834 1301.500 1393.753 1246.500 C 1394.258 1216.250, 1394.633 1191.448, 1394.586 1191.384 C 1394.539 1191.319, 1385.804 1193.914, 1375.175 1197.150 M 399 1564.397 L 378.500 1565.500 378.201 1570.102 L 377.902 1574.704 385.839 1575.366 C 396.137 1576.225, 402.572 1578.216, 406.159 1581.653 C 411.151 1586.435, 412 1591.690, 412 1617.788 C 412 1639.711, 411.888 1641.167, 410.250 1640.481 C 398.447 1635.535, 380.728 1632.425, 370.500 1633.505 C 352.884 1635.365, 339.246 1641.679, 327.412 1653.453 C 318.592 1662.228, 313.564 1670.247, 309.826 1681.500 C 307.791 1687.624, 307.507 1690.378, 307.557 1703.500 C 307.609 1716.995, 307.882 1719.303, 310.282 1726.500 C 316.138 1744.067, 327.384 1757.641, 342.086 1764.888 C 351.054 1769.309, 361.343 1771.965, 369.500 1771.965 C 381.436 1771.965, 398.032 1765.944, 406.812 1758.429 C 409.015 1756.543, 411.084 1755, 411.409 1755 C 411.734 1755, 412 1757.645, 412 1760.878 C 412 1764.375, 412.506 1767.164, 413.250 1767.764 C 414.093 1768.444, 421.657 1768.334, 436.500 1767.423 C 448.600 1766.681, 459.962 1766.058, 461.750 1766.037 C 464.978 1766, 465 1765.967, 465 1761 L 465 1756 458.750 1755.978 C 451.304 1755.952, 444.967 1753.405, 442.328 1749.378 C 440.601 1746.742, 440.473 1741.554, 440 1655.044 L 439.500 1563.500 429.500 1563.397 C 424 1563.340, 410.275 1563.790, 399 1564.397 M 2494 1564.496 C 2482.725 1565.168, 2473.387 1565.781, 2473.250 1565.859 C 2473.113 1565.936, 2473 1567.960, 2473 1570.356 L 2473 1574.712 2480.857 1575.368 C 2494.966 1576.544, 2500.968 1579.421, 2505.128 1587 C 2506.164 1588.889, 2506.580 1595.831, 2506.826 1615.386 C 2507.137 1640.129, 2507.071 1641.239, 2505.326 1640.510 C 2498.712 1637.748, 2487.887 1634.917, 2480.333 1633.974 C 2446.807 1629.789, 2415.725 1649.148, 2405.402 1680.645 C 2402.730 1688.798, 2402.503 1690.649, 2402.533 1704 C 2402.564 1717.624, 2402.753 1719.029, 2405.668 1727.261 C 2409.805 1738.947, 2414.158 1746.057, 2422.086 1754.077 C 2432.627 1764.742, 2449.754 1771.965, 2464.500 1771.965 C 2476.452 1771.965, 2493.022 1765.993, 2501.659 1758.573 C 2503.946 1756.608, 2506.084 1755, 2506.409 1755 C 2506.734 1755, 2507 1757.645, 2507 1760.878 C 2507 1764.374, 2507.506 1767.165, 2508.250 1767.766 C 2509.095 1768.449, 2517.107 1768.313, 2533 1767.344 C 2545.925 1766.556, 2557.534 1766.098, 2558.798 1766.326 C 2560.979 1766.720, 2561.080 1766.482, 2560.798 1761.620 L 2560.500 1756.500 2553 1755.939 C 2544.601 1755.311, 2540.204 1753.440, 2537.398 1749.301 C 2535.577 1746.614, 2535.480 1742.768, 2535 1655 L 2534.500 1563.500 2524.500 1563.387 C 2519 1563.325, 2505.275 1563.824, 2494 1564.496 M 1066.871 1569.006 C 1055.621 1574.951, 1053.202 1587.683, 1061.565 1596.940 C 1066.116 1601.978, 1069.665 1603.337, 1076.900 1602.814 C 1088.786 1601.954, 1096.667 1591.509, 1093.856 1580.342 C 1092.664 1575.610, 1088.020 1570.343, 1083.282 1568.352 C 1078.727 1566.438, 1071.160 1566.739, 1066.871 1569.006 M 1705.145 1568.070 C 1694.921 1572.165, 1690.074 1583.756, 1694.752 1592.929 C 1697.760 1598.829, 1703.140 1602.310, 1710.018 1602.808 C 1717.340 1603.337, 1720.868 1601.995, 1725.430 1596.945 C 1733.956 1587.508, 1731.930 1574.757, 1721.030 1569.250 C 1716.340 1566.881, 1709.401 1566.365, 1705.145 1568.070 M 2069.384 1568.913 C 2063.688 1571.500, 2059.815 1576.866, 2059.227 1582.988 C 2058.600 1589.519, 2059.405 1592.253, 2063.249 1596.631 C 2067.161 1601.086, 2071.443 1603, 2077.500 1603 C 2080.010 1603, 2083.519 1602.392, 2085.298 1601.649 C 2089.695 1599.812, 2094.682 1593.896, 2096.019 1588.929 C 2099.945 1574.351, 2083.923 1562.311, 2069.384 1568.913 M 0 1584.871 L 0 1589.742 4.841 1590.385 C 18.575 1592.206, 27.672 1595.971, 29.623 1600.640 C 31.552 1605.258, 31.644 1745.168, 29.721 1748.970 C 26.985 1754.376, 22.394 1756.165, 7.750 1757.530 L 1 1758.159 1 1763.080 L 1 1768 47.500 1768 L 94 1768 94 1763.142 L 94 1758.284 85.250 1757.059 C 73.443 1755.405, 68.095 1753.265, 65.259 1749.056 L 62.962 1745.648 63.231 1672.347 L 63.500 1599.045 66.064 1596.481 C 69.040 1593.505, 76.452 1591.321, 86.750 1590.384 L 94 1589.724 94 1584.862 L 94 1580 47 1580 L 0 1580 0 1584.871 M 1494 1584.531 C 1494 1587.294, 1494.488 1589.206, 1495.250 1589.430 C 1495.938 1589.632, 1499.631 1590.523, 1503.459 1591.410 C 1512.778 1593.571, 1518.735 1596.587, 1520.527 1600.053 C 1521.784 1602.484, 1522 1613.461, 1522 1675 C 1522 1753.975, 1522.198 1751.295, 1516.128 1754.434 C 1513.784 1755.646, 1500.020 1758, 1495.276 1758 C 1494.411 1758, 1494 1759.612, 1494 1763 L 1494 1768 1575.481 1768 L 1656.962 1768 1657.425 1765.750 C 1657.680 1764.513, 1658.610 1753.150, 1659.493 1740.500 C 1660.375 1727.850, 1661.336 1716.263, 1661.628 1714.750 C 1662.159 1712.002, 1662.155 1712, 1656.288 1712 L 1650.417 1712 1647.623 1717.750 C 1643.348 1726.547, 1630.635 1745.194, 1626.147 1749.248 C 1619.492 1755.260, 1606.207 1757.523, 1582.016 1756.763 C 1564.273 1756.206, 1559.592 1754.917, 1556.448 1749.721 C 1554.573 1746.621, 1554.489 1743.829, 1554.213 1675.443 C 1553.987 1619.574, 1554.200 1603.543, 1555.213 1600.443 C 1556.911 1595.241, 1562.192 1592.562, 1574.062 1590.882 L 1583 1589.617 1583 1584.809 L 1583 1580 1538.500 1580 L 1494 1580 1494 1584.531 M 820 1616.971 L 820 1636.942 806.750 1637.221 L 793.500 1637.500 793.204 1644.250 L 792.909 1651 805.954 1651 L 819 1651 819 1696.951 C 819 1727.133, 819.385 1744.720, 820.123 1748.201 C 823.244 1762.922, 831.762 1769.604, 848.798 1770.692 C 859.563 1771.380, 869.028 1769.957, 881.720 1765.746 L 891.500 1762.500 891.807 1757.119 C 892.103 1751.916, 892.037 1751.759, 889.807 1752.404 C 885.058 1753.776, 865.524 1754.250, 861.295 1753.095 C 855.753 1751.582, 851.628 1747.983, 849.442 1742.754 C 847.855 1738.959, 847.615 1733.783, 847.216 1694.771 L 846.769 1651.041 867.635 1650.771 L 888.500 1650.500 888.500 1644 L 888.500 1637.500 867.750 1637.230 L 847 1636.959 847 1616.980 L 847 1597 833.500 1597 L 820 1597 820 1616.971 M 2157 1617 L 2157 1637 2144 1637 L 2131 1637 2131 1644 L 2131 1651 2143.965 1651 L 2156.929 1651 2157.215 1700.823 L 2157.500 1750.645 2160.522 1756.573 C 2166.170 1767.648, 2176.755 1771.865, 2195.964 1770.695 C 2203.189 1770.255, 2208.572 1769.164, 2217.312 1766.368 L 2229 1762.630 2229 1757.340 L 2229 1752.050 2225.750 1752.770 C 2223.963 1753.166, 2216.875 1753.493, 2210 1753.495 C 2198.526 1753.500, 2197.182 1753.302, 2193.623 1751.090 C 2191.104 1749.524, 2189.002 1747.072, 2187.623 1744.090 C 2185.576 1739.664, 2185.489 1737.915, 2185.202 1695.250 L 2184.903 1651 2205.452 1651 L 2226 1651 2226 1644 L 2226 1637 2205.500 1637 L 2185 1637 2185 1617 L 2185 1597 2171 1597 L 2157 1597 2157 1617 M 208.254 1634.494 C 198.572 1636.250, 190.165 1640.423, 180.500 1648.271 L 172.500 1654.768 172.214 1645.976 C 172.039 1640.614, 171.454 1636.801, 170.714 1636.202 C 169.916 1635.556, 162.475 1635.679, 149 1636.560 C 137.725 1637.297, 126.813 1637.922, 124.750 1637.950 L 121 1638 121 1642.860 L 121 1647.720 126.387 1648.276 C 133.200 1648.979, 137.151 1651.021, 140.698 1655.670 L 143.500 1659.342 143.811 1702.921 C 144.017 1731.797, 143.762 1747.728, 143.054 1750.140 C 141.739 1754.620, 138.478 1756.868, 132.258 1757.583 C 122.856 1758.663, 123 1758.570, 123 1763.519 L 123 1768 158.500 1768 L 194 1768 194 1763.607 C 194 1758.997, 193.039 1758, 188.596 1758 C 184.313 1758, 177.012 1754.803, 174.514 1751.834 L 172 1748.847 172 1708.537 L 172 1668.227 176.750 1663.178 C 186.072 1653.267, 203.860 1647.693, 215.807 1650.938 C 220.949 1652.335, 227.316 1657.815, 230.322 1663.432 C 232.443 1667.394, 232.508 1668.573, 232.792 1708.861 C 233.052 1745.621, 232.904 1750.498, 231.464 1752.695 C 229.468 1755.741, 224.305 1757.996, 219.282 1758.014 C 212.038 1758.040, 211 1758.742, 211 1763.617 L 211 1768 247 1768 L 283 1768 283 1763.545 C 283 1759.176, 282.928 1759.079, 279.250 1758.462 C 271.989 1757.245, 266.004 1754.821, 264.013 1752.289 C 262.078 1749.829, 261.999 1748.279, 261.980 1712.115 C 261.958 1670.891, 261.333 1663.471, 257.120 1654.453 C 251.806 1643.077, 244.223 1637.214, 231.280 1634.471 C 223.131 1632.745, 217.875 1632.750, 208.254 1634.494 M 709.500 1633.626 C 698.731 1635.746, 695.770 1636.609, 691 1639.015 C 674.209 1647.485, 665.806 1664.497, 670.476 1680.569 C 674.887 1695.750, 686.853 1704.175, 716.500 1712.976 C 733.452 1718.009, 742.270 1722.253, 746.416 1727.375 C 749.267 1730.898, 749.500 1731.770, 749.500 1738.916 C 749.500 1745.629, 749.147 1747.180, 746.816 1750.702 C 739.960 1761.063, 718.814 1763.750, 703.131 1756.253 C 699.675 1754.601, 694.793 1750.847, 690.489 1746.531 C 684.883 1740.909, 682.680 1737.741, 679.489 1730.722 L 675.500 1721.944 670.500 1722.222 L 665.500 1722.500 665.773 1736.500 C 665.923 1744.200, 666.316 1754.683, 666.645 1759.796 L 667.245 1769.093 672.793 1768.796 C 678.304 1768.502, 678.351 1768.473, 679.683 1764.465 L 681.024 1760.429 688.762 1764.176 C 699.750 1769.496, 707.575 1771.266, 720 1771.242 C 738.073 1771.207, 751.250 1766.605, 761.770 1756.656 C 771.062 1747.869, 774.653 1737.199, 772.824 1723.820 C 770.592 1707.500, 758.520 1698.329, 725.500 1687.868 C 708.333 1682.430, 699.032 1678.128, 695.940 1674.196 C 690.994 1667.909, 691.177 1658.146, 696.352 1652.252 C 707.486 1639.570, 734.199 1642.306, 746.418 1657.379 C 750.350 1662.229, 753.477 1668.209, 754.457 1672.750 C 755.147 1675.943, 755.257 1676, 760.715 1676 L 766.272 1676 765.623 1664.250 C 765.267 1657.787, 764.697 1648.112, 764.359 1642.750 L 763.742 1633 758.355 1633 C 753.219 1633, 752.892 1633.158, 751.356 1636.379 L 749.745 1639.759 744.122 1637.767 C 733.681 1634.068, 717.241 1632.102, 709.500 1633.626 M 1193.500 1633.629 C 1171.861 1636.992, 1153.830 1650.449, 1144.504 1670.195 C 1138.927 1682.002, 1137.507 1688.777, 1137.628 1703 C 1137.813 1724.910, 1143.563 1739.850, 1156.885 1753.040 C 1169.576 1765.606, 1184.127 1771.104, 1205 1771.221 C 1222.417 1771.319, 1234.561 1767.631, 1247.076 1758.445 C 1252.681 1754.330, 1260.832 1745.644, 1263.784 1740.641 C 1266.115 1736.691, 1266.003 1736.503, 1259.350 1733.152 L 1255.201 1731.062 1250.148 1737.986 C 1240.946 1750.599, 1230.289 1756, 1214.605 1756 C 1186.525 1756, 1170.034 1738.834, 1167.365 1706.823 L 1166.712 1699 1214.356 1699 L 1262 1699 1262 1689.160 C 1262 1661.004, 1248.428 1642.158, 1223.328 1635.460 C 1217.457 1633.893, 1199.066 1632.764, 1193.500 1633.629 M 1333.500 1633.558 C 1332.400 1633.812, 1329.032 1634.521, 1326.015 1635.134 C 1313.002 1637.778, 1302.203 1645.779, 1296.781 1656.794 C 1293.851 1662.745, 1293.500 1664.370, 1293.500 1671.979 C 1293.500 1682.443, 1295.881 1688.039, 1303.523 1695.540 C 1310.139 1702.033, 1319.743 1706.677, 1338.277 1712.348 C 1361.113 1719.335, 1368.548 1723.234, 1372.023 1730.044 C 1374.343 1734.592, 1374.632 1742.552, 1372.649 1747.298 C 1371.156 1750.871, 1365.118 1756.624, 1361.364 1758.052 C 1351.657 1761.742, 1337.278 1761.082, 1327.595 1756.502 C 1316.750 1751.371, 1304.700 1737.410, 1301.010 1725.701 L 1299.813 1721.902 1294.656 1722.201 L 1289.500 1722.500 1289.792 1741 C 1289.953 1751.175, 1290.336 1761.659, 1290.643 1764.297 L 1291.201 1769.094 1296.771 1768.797 C 1302.308 1768.502, 1302.350 1768.475, 1303.683 1764.465 L 1305.024 1760.429 1312.762 1764.176 C 1317.018 1766.237, 1323.425 1768.680, 1327 1769.606 C 1334.786 1771.623, 1350.875 1771.838, 1359.500 1770.040 C 1374.371 1766.940, 1388.293 1757.212, 1393.745 1746.109 C 1396.221 1741.069, 1396.500 1739.435, 1396.500 1730 C 1396.500 1720.786, 1396.195 1718.903, 1394.012 1714.629 C 1388.372 1703.585, 1376.450 1696.471, 1348.500 1687.471 C 1339.150 1684.460, 1329.264 1680.760, 1326.532 1679.249 C 1315.578 1673.188, 1312.740 1660.922, 1320.299 1652.312 C 1329.188 1642.189, 1349.275 1641.424, 1362.813 1650.693 C 1369.199 1655.065, 1375.385 1663.373, 1377.683 1670.663 L 1379.365 1676 1384.812 1676 L 1390.258 1676 1389.647 1667.250 C 1389.311 1662.438, 1388.742 1652.763, 1388.382 1645.750 L 1387.729 1633 1381.986 1633 C 1376.512 1633, 1376.183 1633.145, 1374.964 1636.087 C 1373.547 1639.508, 1374.413 1639.507, 1362 1636.088 C 1354.817 1634.110, 1337.695 1632.590, 1333.500 1633.558 M 1861.402 1633.997 C 1849.933 1635.679, 1842.032 1639.535, 1830.808 1648.927 L 1822.500 1655.880 1822.215 1646.533 C 1822.038 1640.721, 1821.470 1636.818, 1820.715 1636.211 C 1819.922 1635.575, 1812.377 1635.701, 1799 1636.573 C 1787.725 1637.309, 1776.788 1637.931, 1774.695 1637.955 L 1770.890 1638 1771.195 1642.667 L 1771.500 1647.334 1777.795 1648.614 C 1786.075 1650.296, 1790.377 1653.081, 1792.969 1658.436 C 1795.033 1662.700, 1795.073 1663.768, 1794.790 1706.648 C 1794.547 1743.348, 1794.259 1750.864, 1793.020 1752.734 C 1791.252 1755.401, 1785.215 1757.995, 1780.730 1758.014 C 1774.075 1758.042, 1773 1758.821, 1773 1763.617 L 1773 1768 1808.500 1768 L 1844 1768 1844 1763.519 C 1844 1759.432, 1843.758 1758.989, 1841.250 1758.483 C 1832.825 1756.783, 1827.957 1754.737, 1825.562 1751.892 L 1823 1748.847 1823 1708.842 L 1823 1668.837 1826.574 1664.475 C 1835.511 1653.569, 1853.372 1647.475, 1866.065 1651.002 C 1871.319 1652.461, 1877.374 1658.155, 1880.108 1664.206 L 1882.500 1669.500 1882.500 1709.595 C 1882.500 1741.926, 1882.231 1750.195, 1881.109 1752.293 C 1879.604 1755.108, 1873.617 1757.992, 1869.230 1758.014 C 1863.106 1758.044, 1862 1758.901, 1862 1763.617 L 1862 1768 1897 1768 L 1932 1768 1932 1763.519 C 1932 1758.689, 1932.331 1758.940, 1924.170 1757.575 C 1918.295 1756.592, 1913.843 1753.868, 1912.377 1750.360 C 1911.287 1747.752, 1911 1738.903, 1911 1707.950 L 1911 1668.837 1914.574 1664.475 C 1921.642 1655.850, 1934.542 1649.980, 1946.339 1650.022 C 1953.631 1650.048, 1959.110 1652.291, 1963.699 1657.128 C 1970.455 1664.249, 1970.466 1664.324, 1970.819 1707.500 C 1971.036 1734.049, 1970.783 1747.698, 1970.027 1750.254 C 1968.660 1754.877, 1965.848 1756.817, 1959.435 1757.558 C 1949.825 1758.670, 1950 1758.559, 1950 1763.519 L 1950 1768 1985.500 1768 L 2021 1768 2021 1763.607 C 2021 1759.016, 2020.040 1758.006, 2015.668 1757.994 C 2011.445 1757.984, 2005.852 1755.839, 2002.697 1753.022 L 1999.500 1750.167 1998.980 1706.333 C 1998.477 1663.978, 1998.384 1662.313, 1996.233 1656.952 C 1989.788 1640.888, 1977.698 1633.503, 1958 1633.600 C 1942.056 1633.678, 1930.404 1638.532, 1915.698 1651.222 C 1912.506 1653.975, 1909.772 1656.065, 1909.621 1655.864 C 1909.471 1655.664, 1908.341 1653.826, 1907.110 1651.779 C 1901.923 1643.153, 1890.421 1635.923, 1878.914 1634.056 C 1871.813 1632.904, 1868.925 1632.894, 1861.402 1633.997 M 2304.757 1633.964 C 2290.801 1636.518, 2276.102 1644.488, 2267.763 1654.021 C 2252.583 1671.374, 2246.798 1695.023, 2251.814 1719.224 C 2256.397 1741.336, 2268.022 1756.568, 2286.929 1765.235 C 2295.985 1769.386, 2305.735 1771.256, 2318.500 1771.288 C 2335.897 1771.333, 2349.714 1766.620, 2362.423 1756.306 C 2368.331 1751.512, 2378.001 1739.957, 2377.999 1737.693 C 2377.997 1735.895, 2367.709 1730.372, 2367.201 1731.897 C 2366.521 1733.936, 2357.714 1744.528, 2354.333 1747.373 C 2342.834 1757.049, 2321.111 1758.878, 2305.214 1751.509 C 2291.076 1744.955, 2281.891 1728.631, 2280.312 1707.250 L 2279.703 1699 2327.351 1699 L 2375 1699 2374.983 1690.250 C 2374.926 1661.628, 2361.090 1641.992, 2336.408 1635.504 C 2329.296 1633.635, 2311.332 1632.761, 2304.757 1633.964 M 991.500 1635.339 C 981.937 1638.455, 968.558 1646.933, 963.941 1652.802 L 962 1655.270 962 1646.706 C 962 1636.067, 961.183 1634.964, 953.751 1635.578 C 945.234 1636.283, 916.932 1638, 913.845 1638 C 911.109 1638, 911 1638.186, 911 1642.860 L 911 1647.720 916.387 1648.276 C 923.512 1649.012, 927.422 1651.169, 930.754 1656.205 L 933.500 1660.354 933.500 1704.971 C 933.500 1746.503, 933.374 1749.781, 931.672 1752.378 C 929.562 1755.599, 924.509 1757.994, 919.782 1758.014 C 913.071 1758.042, 912 1758.813, 912 1763.617 L 912 1768 950.500 1768 L 989 1768 989 1763.519 C 989 1758.487, 989.190 1758.595, 978.579 1757.534 C 971.532 1756.830, 964.592 1753.974, 963.086 1751.160 C 962.355 1749.796, 962 1735.706, 962 1708.132 L 962 1667.133 966.845 1662.159 C 971.979 1656.888, 981.170 1651.646, 987.948 1650.123 L 992.035 1649.205 991.456 1655.352 C 990.776 1662.586, 992.760 1666.781, 998.206 1669.621 C 1002.856 1672.045, 1012.656 1672.021, 1016.308 1669.575 C 1020.579 1666.714, 1023 1661.080, 1023 1654 C 1023 1646.284, 1020.388 1640.947, 1014.803 1637.251 C 1011.313 1634.941, 1009.432 1634.463, 1003.073 1634.268 C 998.887 1634.139, 993.711 1634.618, 991.500 1635.339 M 503.500 1636.885 L 480.500 1638.500 480.500 1642.912 L 480.500 1647.325 486.795 1648.609 C 490.258 1649.315, 494.597 1650.824, 496.439 1651.962 C 502.874 1655.939, 502.999 1656.793, 503.008 1696.651 C 503.012 1716.900, 503.473 1735.329, 504.067 1739 C 506.261 1752.557, 513.879 1763.328, 524.783 1768.287 C 531.371 1771.283, 551.113 1771.976, 559.650 1769.510 C 568.008 1767.096, 578.012 1761.593, 584.715 1755.722 L 590.500 1750.655 590.789 1758.738 C 590.960 1763.519, 591.573 1767.224, 592.289 1767.809 C 593.091 1768.465, 600.425 1768.337, 614 1767.430 C 625.275 1766.677, 635.962 1766.047, 637.750 1766.031 C 640.979 1766, 641 1765.968, 641 1761 L 641 1756 636.157 1756 C 629.842 1756, 623.320 1752.586, 620.855 1747.991 C 619.114 1744.744, 619 1741.227, 619 1690.888 C 619 1649.169, 618.722 1637.024, 617.750 1636.253 C 616.919 1635.595, 607.692 1635.784, 590.250 1636.817 L 564 1638.372 564 1643.186 L 564 1648 569.250 1648.024 C 576.582 1648.059, 583.077 1649.733, 585.879 1652.311 C 590.853 1656.888, 591 1658.231, 591 1699.064 C 591 1742.901, 591.710 1739.537, 580.758 1747.599 C 570.201 1755.371, 554.484 1758.269, 545.500 1754.100 C 540.234 1751.657, 535.500 1746.558, 533.333 1740.996 C 531.768 1736.978, 531.543 1731.243, 531.222 1687.020 C 530.869 1638.339, 530.622 1634.777, 527.628 1635.135 C 527.007 1635.209, 516.150 1635.996, 503.500 1636.885 M 1067 1636.550 C 1056.275 1637.249, 1045.362 1637.861, 1042.750 1637.910 L 1038 1638 1038 1643 C 1038 1647.805, 1038.109 1648, 1040.790 1648 C 1042.324 1648, 1046.262 1648.698, 1049.540 1649.550 C 1056.622 1651.392, 1061.561 1655.656, 1063.060 1661.222 C 1063.702 1663.608, 1063.973 1680.865, 1063.790 1707.757 C 1063.548 1743.476, 1063.257 1750.867, 1062.020 1752.734 C 1060.252 1755.401, 1054.215 1757.995, 1049.730 1758.014 C 1042.997 1758.042, 1041.868 1758.847, 1042.199 1763.380 L 1042.500 1767.500 1077.750 1767.763 L 1113 1768.026 1113 1763.620 C 1113 1759.091, 1112.020 1758, 1107.956 1758 C 1106.921 1758, 1103.577 1757.065, 1100.523 1755.923 C 1091.505 1752.549, 1092 1756.219, 1092 1692.750 C 1092 1635.589, 1091.945 1634.789, 1088.050 1635.140 C 1087.197 1635.217, 1077.725 1635.851, 1067 1636.550 M 1703 1636.563 C 1692.275 1637.260, 1681.362 1637.869, 1678.750 1637.915 L 1674 1638 1674 1642.531 C 1674 1645.307, 1674.484 1647.195, 1675.250 1647.405 C 1675.938 1647.593, 1679.425 1648.284, 1683 1648.940 C 1686.575 1649.596, 1691.117 1651.188, 1693.094 1652.477 C 1700.045 1657.012, 1700 1656.671, 1699.996 1705.651 C 1699.993 1747.317, 1699.896 1749.659, 1698.048 1752.689 C 1696.001 1756.046, 1691.356 1757.984, 1685.332 1757.994 C 1679.896 1758.004, 1679 1758.798, 1679 1763.607 L 1679 1768 1714.055 1768 L 1749.110 1768 1748.805 1763.250 C 1748.518 1758.785, 1748.320 1758.482, 1745.500 1758.201 C 1740.068 1757.660, 1733.328 1754.978, 1730.894 1752.387 L 1728.500 1749.840 1728.225 1693.743 C 1728.035 1654.860, 1727.614 1637.240, 1726.853 1636.323 C 1726.249 1635.595, 1725.023 1635.066, 1724.128 1635.147 C 1723.232 1635.228, 1713.725 1635.865, 1703 1636.563 M 2069 1636.550 C 2058.275 1637.249, 2047.362 1637.861, 2044.750 1637.910 L 2040 1638 2040 1643 C 2040 1647.805, 2040.109 1648, 2042.790 1648 C 2047.007 1648, 2056.825 1650.785, 2059.554 1652.755 C 2060.883 1653.715, 2062.877 1656.330, 2063.985 1658.566 C 2065.910 1662.449, 2066 1664.541, 2066 1705.167 C 2066 1732.918, 2065.626 1748.773, 2064.925 1750.785 C 2063.537 1754.768, 2060.189 1756.901, 2054.258 1757.583 C 2044.856 1758.663, 2045 1758.570, 2045 1763.519 L 2045 1768 2080 1768 L 2115 1768 2115 1763.519 C 2115 1759.432, 2114.758 1758.989, 2112.250 1758.483 C 2103.825 1756.783, 2098.957 1754.737, 2096.562 1751.892 L 2094 1748.847 2094 1693.123 C 2094 1635.574, 2093.946 1634.789, 2090.050 1635.140 C 2089.197 1635.217, 2079.725 1635.851, 2069 1636.550 M 369.723 1645.356 C 359.348 1648.284, 349.806 1657.406, 344.452 1669.513 C 337.240 1685.820, 336.080 1710.581, 341.708 1728.083 C 347.616 1746.456, 364.279 1758.021, 382.994 1756.738 C 392.105 1756.113, 397.113 1754.093, 405.750 1747.559 L 412 1742.830 412 1704.111 L 412 1665.392 409.172 1660.932 C 405.289 1654.810, 397.826 1648.475, 392.195 1646.522 C 385.659 1644.255, 375.493 1643.728, 369.723 1645.356 M 1194.500 1644.938 C 1185.901 1647.041, 1177.168 1654.564, 1172.525 1663.869 C 1169.956 1669.016, 1167.054 1680.021, 1167.017 1684.750 L 1167 1687 1200.116 1687 L 1233.233 1687 1232.545 1680.250 C 1230.430 1659.519, 1223.944 1648.425, 1211.920 1644.977 C 1208.048 1643.867, 1198.965 1643.846, 1194.500 1644.938 M 2307 1644.935 C 2298.206 1647.620, 2290.418 1654.141, 2285.739 1662.738 C 2282.872 1668.005, 2280.039 1678.405, 2280.015 1683.750 L 2280 1687 2312.981 1687 L 2345.962 1687 2345.425 1682.250 C 2344.186 1671.290, 2342.742 1664.270, 2340.796 1659.748 C 2338.093 1653.465, 2330.501 1646.615, 2324.590 1645.127 C 2319.590 1643.868, 2310.810 1643.772, 2307 1644.935 M 2464.723 1645.420 C 2450.752 1649.177, 2439.967 1662.696, 2435.542 1682 C 2430.535 1703.838, 2433.289 1725.874, 2442.765 1739.789 C 2450.791 1751.575, 2460.644 1756.520, 2476 1756.468 C 2487.035 1756.431, 2490.828 1755.065, 2500.750 1747.559 L 2507 1742.830 2507 1704.029 L 2507 1665.228 2503.055 1659.364 C 2494.795 1647.085, 2479.380 1641.478, 2464.723 1645.420" stroke="none" fill="#1b1413" fill-rule="evenodd"/><path d="M 1140 0.657 C 1138.075 0.842, 1131.325 1.481, 1125 2.075 C 1102.470 4.193, 1070.967 10.298, 1050 16.609 C 1036.682 20.617, 1002.567 32.843, 991.100 37.716 C 908.005 73.031, 833.218 140.772, 786.680 222.880 C 765.795 259.727, 750.109 305.115, 742.573 350.500 C 738.627 374.264, 737.589 388.351, 737.599 418 C 737.610 449.571, 738.771 463.843, 743.544 491.054 C 764.595 611.065, 838.191 714.179, 949.696 779.891 C 961.375 786.773, 999.827 806.008, 1004.961 807.536 C 1007.389 808.259, 1007.399 808.236, 1005.711 805.884 C 982.872 774.070, 969.229 743.273, 955.091 691.616 C 943.186 648.115, 938.275 608.764, 939.291 565.001 C 940.043 532.604, 943.436 506.196, 950.057 481.207 C 962.337 434.864, 990.819 388.912, 1026.010 358.668 C 1063.099 326.794, 1103.582 310.225, 1149 308.331 C 1198.126 306.283, 1244.772 321.928, 1272.256 349.671 C 1284.428 361.957, 1291.325 372.975, 1297.358 389.766 C 1304.704 410.212, 1306.589 437.745, 1302.098 459 C 1291.410 509.588, 1249.718 548.807, 1194 560.688 C 1187.390 562.097, 1181.010 562.500, 1165.302 562.500 L 1145.105 562.500 1147.398 565 C 1148.659 566.375, 1172.606 592.250, 1200.613 622.500 C 1228.620 652.750, 1267.837 695.138, 1287.762 716.695 C 1307.688 738.253, 1325.455 757.005, 1327.245 758.367 C 1332.370 762.264, 1339.795 765.655, 1349.523 768.538 C 1361.613 772.121, 1382.248 773.039, 1395.312 770.575 C 1412.505 767.331, 1426.404 761.035, 1442.059 749.399 C 1489.468 714.160, 1529.343 669.352, 1558.447 618.612 C 1580.756 579.718, 1597.567 533.031, 1605.456 488.054 C 1610.391 459.922, 1611.415 446.814, 1611.400 412 C 1611.384 376.400, 1610.497 366.421, 1604.874 338.589 C 1582.870 229.678, 1507.863 122.913, 1413 65.475 C 1398.706 56.821, 1361.227 38.144, 1346.344 32.260 C 1303.269 15.228, 1257.848 4.853, 1209.605 1.023 C 1197.917 0.096, 1148.528 -0.164, 1140 0.657 M 1074.623 469.500 C 1064.549 515.272, 1047.662 560.813, 1021.154 613.692 C 1009.652 636.638, 1005.703 651.998, 1005.777 673.500 C 1005.918 713.915, 1025.441 754.120, 1067.289 800.171 L 1077.410 811.309 1085.309 802.985 C 1115.099 771.595, 1136.179 734.250, 1142.615 701.464 C 1145.004 689.297, 1144.984 666.018, 1142.573 652.500 C 1139.267 633.959, 1133.951 619.769, 1112.231 571.500 C 1087.947 517.534, 1082.547 501.368, 1077.157 466.500 L 1076.384 461.500 1074.623 469.500" stroke="none" fill="#c4a464" fill-rule="evenodd"/></svg>